<?xml version="1.0" encoding="utf-8"?>
<!-- Generator: Adobe Illustrator 24.0.3, SVG Export Plug-In . SVG Version: 6.00 Build 0)  -->
<svg version="1.1" id="Layer_1" xmlns="http://www.w3.org/2000/svg" xmlns:xlink="http://www.w3.org/1999/xlink" x="0px" y="0px"
	 viewBox="0 0 631.4 146.3" style="enable-background:new 0 0 631.4 146.3;" xml:space="preserve">
<style type="text/css">
	.st0{fill:#FAD83B;}
</style>
<g>
	<g>
		<path class="st0" d="M121.3,28.2L77.7,3.1C70.6-1,61.9-1,54.9,3.1L43.5,9.7V39v6.7v27.5c0,8.1,4.3,15.7,11.4,19.8
			c3.5,2,7.5,3.1,11.4,3.1s7.9-1,11.4-3.1l0,0c7.1-4.1,11.4-11.6,11.4-19.8c0-8.1-4.3-15.7-11.4-19.8l0,0c-3.5-2-7.5-3.1-11.4-3.1
			V36c3.9,0,7.9,1,11.4,3.1l12.4,7.2c7.1,4.1,11.4,11.6,11.4,19.8v14.3c0,8.1-4.3,15.7-11.4,19.8l-12.4,7.2c-3.5,2-7.5,3.1-11.4,3.1
			s-7.9-1-11.4-3.1l-12.4-7.2c-7.1-4.1-11.4-11.6-11.4-19.8v-7.2V66V47.5V16.8L11.4,28.2C4.3,32.3,0,39.8,0,48v50.3
			c0,8.1,4.3,15.7,11.4,19.8L55,143.2c7.1,4.1,15.8,4.1,22.8,0l43.6-25.1c7.1-4.1,11.4-11.6,11.4-19.8V48
			C132.7,39.8,128.3,32.3,121.3,28.2z M52.3,55.2c-1.3,1-2.4,2.1-3.4,3.3v-16l3.4-2V55.2z M61,51c-1.2,0.3-2.3,0.6-3.4,1.1V37.7
			c1.1-0.5,2.3-0.8,3.4-1.1V51z"/>
	</g>
	<g>
		<path class="st0" d="M195.4,57.5c3.7,2.2,6.6,5.5,8.6,9.7c2.1,4.2,3.1,9.2,3.1,14.9c0,5.7-1.1,10.7-3.1,14.9
			c-2.1,4.2-4.9,7.5-8.6,9.7c-3.7,2.2-7.8,3.3-12.4,3.3s-8.5-1.1-11.8-3.3c-3.3-2.2-5.6-5.2-7-8.7v11.5h-13.9V36.6h13.9v29.7
			c1.4-3.7,3.7-6.6,7-8.7c3.3-2.2,7.1-3.3,11.8-3.3S191.7,55.3,195.4,57.5z M168.3,70.6c-2.7,2.9-4.1,6.7-4.1,11.6
			c0,4.8,1.4,8.6,4.1,11.5c2.7,2.9,6.2,4.2,10.4,4.2c4.4,0,7.8-1.4,10.4-4.2c2.6-2.7,4-6.7,4-11.6c0-4.9-1.4-8.7-4-11.6
			c-2.6-2.9-6.2-4.2-10.4-4.2C174.5,66.2,171.1,67.7,168.3,70.6z"/>
		<path class="st0" d="M262.8,84.8h-39.9c0.1,4.9,1.5,8.5,4,10.7c2.5,2.3,5.5,3.4,9,3.4c3.3,0,5.9-0.8,8.1-2.3
			c2.2-1.6,3.6-3.7,4.1-6.4h14.6c-0.7,3.8-2.3,7.2-4.6,10.3c-2.3,3-5.3,5.3-9.2,7.1c-3.7,1.6-7.8,2.6-12.3,2.6
			c-5.3,0-10-1.1-14.2-3.4c-4.1-2.3-7.4-5.5-9.7-9.7c-2.3-4.2-3.4-9.2-3.4-14.9c0-5.7,1.1-10.7,3.4-14.9c2.3-4.2,5.5-7.5,9.7-9.7
			c4.1-2.2,8.9-3.3,14.2-3.3s10.1,1.1,14.1,3.3c4.1,2.2,7.1,5.3,9.3,9.2c2.2,4,3.3,8.3,3.3,13.4C263.3,81.4,263.2,83.1,262.8,84.8z
			 M245.8,68.6c-2.5-2.3-5.6-3.4-9.3-3.4c-3.7,0-6.8,1.1-9.4,3.4s-4,5.7-4.2,10.1h26.5C249.5,74.3,248.4,70.9,245.8,68.6z"/>
		<path class="st0" d="M319,84.8H279c0.1,4.9,1.5,8.5,4,10.7c2.5,2.3,5.5,3.4,9,3.4c3.3,0,5.9-0.8,8.1-2.3c2.2-1.6,3.6-3.7,4.1-6.4
			h14.6c-0.7,3.8-2.3,7.2-4.6,10.3c-2.3,3-5.3,5.3-9.2,7.1c-3.7,1.6-7.8,2.6-12.3,2.6c-5.3,0-10-1.1-14.2-3.4
			c-4.1-2.3-7.4-5.5-9.7-9.7c-2.3-4.2-3.4-9.2-3.4-14.9c0-5.7,1.1-10.7,3.4-14.9c2.3-4.2,5.5-7.5,9.7-9.7c4.1-2.2,8.9-3.3,14.2-3.3
			s10.1,1.1,14.1,3.3c4.1,2.2,7.1,5.3,9.3,9.2c2.2,4,3.3,8.3,3.3,13.4C319.5,81.4,319.4,83.1,319,84.8z M302,68.6
			c-2.5-2.3-5.6-3.4-9.3-3.4s-6.8,1.1-9.4,3.4c-2.6,2.3-4,5.7-4.2,10.1h26.5C305.7,74.3,304.6,70.9,302,68.6z"/>
		<path class="st0" d="M356.3,109.4l-18-23.8v23.8h-13.9V36.6h13.9v41l17.9-22.7h16.4l-23,27.2l23.5,27.3H356.3z"/>
		<path class="st0" d="M418.9,84.8H379c0.1,4.9,1.5,8.5,4,10.7c2.5,2.3,5.5,3.4,9,3.4c3.3,0,5.9-0.8,8.1-2.3
			c2.2-1.6,3.6-3.7,4.1-6.4h14.6c-0.7,3.8-2.3,7.2-4.6,10.3c-2.3,3-5.3,5.3-9.2,7.1c-3.7,1.6-7.8,2.6-12.3,2.6
			c-5.3,0-10-1.1-14.2-3.4c-4.1-2.3-7.4-5.5-9.7-9.7c-2.3-4.2-3.4-9.2-3.4-14.9c0-5.7,1.1-10.7,3.4-14.9c2.3-4.2,5.5-7.5,9.7-9.7
			c4.1-2.2,8.9-3.3,14.2-3.3s10.1,1.1,14.1,3.3c4.1,2.2,7.1,5.3,9.3,9.2c2.2,4,3.3,8.3,3.3,13.4C419.3,81.4,419.1,83.1,418.9,84.8z
			 M401.8,68.6c-2.5-2.3-5.6-3.4-9.3-3.4c-3.7,0-6.8,1.1-9.4,3.4s-4,5.7-4.2,10.1h26.5C405.5,74.3,404.4,70.9,401.8,68.6z"/>
		<path class="st0" d="M475.1,84.8h-39.9c0.1,4.9,1.5,8.5,4,10.7c2.5,2.3,5.5,3.4,9,3.4c3.3,0,5.9-0.8,8.1-2.3
			c2.2-1.6,3.6-3.7,4.1-6.4h14.6c-0.7,3.8-2.3,7.2-4.6,10.3c-2.3,3-5.3,5.3-9.2,7.1c-3.7,1.6-7.8,2.6-12.3,2.6
			c-5.3,0-10-1.1-14.2-3.4c-4.1-2.3-7.4-5.5-9.7-9.7c-2.3-4.2-3.4-9.2-3.4-14.9c0-5.7,1.1-10.7,3.4-14.9s5.5-7.5,9.7-9.7
			c4.1-2.2,8.9-3.3,14.2-3.3c5.3,0,10.1,1.1,14.1,3.3c4.1,2.2,7.1,5.3,9.3,9.2c2.2,4,3.3,8.3,3.3,13.4
			C475.5,81.4,475.3,83.1,475.1,84.8z M458.1,68.6c-2.5-2.3-5.6-3.4-9.3-3.4c-3.7,0-6.8,1.1-9.4,3.4s-4,5.7-4.2,10.1h26.5
			C461.8,74.3,460.6,70.9,458.1,68.6z"/>
		<path class="st0" d="M525.4,57.5c3.7,2.2,6.6,5.5,8.6,9.7c2.1,4.2,3.1,9.2,3.1,14.9c0,5.7-1.1,10.7-3.1,14.9
			c-2.1,4.2-4.9,7.5-8.6,9.7c-3.7,2.2-7.8,3.3-12.4,3.3c-4.6,0-8.5-1.1-11.8-3.3c-3.3-2.2-5.6-5.2-7-8.7v37.5h-13.9V54.9h13.9v11.3
			c1.4-3.7,3.7-6.6,7-8.7c3.3-2.2,7.1-3.3,11.8-3.3C517.6,54.2,521.7,55.3,525.4,57.5z M498.3,70.6c-2.7,2.9-4.1,6.7-4.1,11.6
			c0,4.8,1.4,8.6,4.1,11.5c2.7,2.9,6.2,4.2,10.4,4.2c4.4,0,7.8-1.4,10.4-4.2c2.6-2.7,4-6.7,4-11.6c0-4.9-1.4-8.7-4-11.6
			s-6.2-4.2-10.4-4.2C504.4,66.2,501,67.7,498.3,70.6z"/>
		<path class="st0" d="M592.9,84.8H553c0.1,4.9,1.5,8.5,4,10.7c2.5,2.3,5.5,3.4,9,3.4c3.3,0,5.9-0.8,8.1-2.3
			c2.2-1.6,3.6-3.7,4.1-6.4h14.6c-0.7,3.8-2.3,7.2-4.6,10.3c-2.3,3-5.3,5.3-9.2,7.1c-3.7,1.6-7.8,2.6-12.3,2.6
			c-5.3,0-10-1.1-14.2-3.4c-4.1-2.3-7.4-5.5-9.7-9.7c-2.3-4.2-3.4-9.2-3.4-14.9c0-5.7,1.1-10.7,3.4-14.9c2.3-4.2,5.5-7.5,9.7-9.7
			c4.1-2.2,8.9-3.3,14.2-3.3s10.1,1.1,14.1,3.3c4.1,2.2,7.1,5.3,9.3,9.2c2.2,4,3.3,8.3,3.3,13.4C593.3,81.4,593.2,83.1,592.9,84.8z
			 M575.8,68.6c-2.5-2.3-5.6-3.4-9.3-3.4c-3.7,0-6.8,1.1-9.4,3.4s-4,5.7-4.2,10.1h26.5C579.5,74.3,578.4,70.9,575.8,68.6z"/>
		<path class="st0" d="M620.2,57.1c3.3-2.1,7.1-3,11.2-3V69h-4.1c-10.1,0-15.3,4.8-15.3,14.2v26.2h-13.9V54.9h14.1v10.4
			C614.2,61.9,616.8,59.1,620.2,57.1z"/>
	</g>
	<g>
		<path class="st0" d="M527.4,127.8c1.4,1.1,2.3,2.8,2.5,4.7h-3.8c-0.1-1-0.6-1.9-1.4-2.5s-1.8-1-2.9-1c-1,0-1.8,0.3-2.4,0.8
			c-0.5,0.5-0.9,1.1-0.9,2c0,0.6,0.3,1.1,0.6,1.5s0.9,0.6,1.5,0.9s1.5,0.5,2.5,0.8c1.5,0.4,2.7,0.6,3.6,1c0.9,0.4,1.7,0.9,2.3,1.7
			c0.6,0.8,1,1.8,1,3.2c0,1.7-0.6,2.9-1.9,3.9c-1.3,1-2.9,1.5-5.1,1.5c-2.4,0-4.4-0.5-6-1.7c-1.5-1.1-2.4-2.7-2.7-4.8h3.9
			c0.1,1,0.6,1.9,1.4,2.5c0.9,0.6,1.9,1,3.3,1c1,0,1.8-0.3,2.3-0.8c0.5-0.5,0.9-1.1,0.9-1.9c0-0.6-0.3-1.3-0.6-1.7
			c-0.4-0.4-1-0.8-1.7-0.9c-0.6-0.3-1.5-0.5-2.7-0.6c-1.4-0.4-2.5-0.6-3.4-1c-0.9-0.4-1.7-0.9-2.3-1.7c-0.6-0.8-0.9-1.8-0.9-3
			c0-1.7,0.6-3,1.9-4.1c1.3-1,2.9-1.5,5.2-1.5C524.2,126.1,526,126.6,527.4,127.8z"/>
		<path class="st0" d="M545.8,142.3v3.6h-2.5c-2,0-3.7-0.5-4.7-1.5c-1.1-1-1.7-2.7-1.7-5.1v-9.6h-2.8v-3.4h2.8v-4.8h4.1v4.8h4.7v3.4
			h-4.7v9.6c0,1.1,0.3,1.9,0.6,2.3s1.1,0.6,2.2,0.6h2V142.3z"/>
		<path class="st0" d="M569.4,126.3v19.5h-4.1v-4.3c-0.5,1.4-1.4,2.5-2.5,3.3c-1.1,0.8-2.7,1.1-4.3,1.1c-2.3,0-4.1-0.8-5.5-2.2
			c-1.4-1.5-2-3.6-2-6.3v-11.4h4.1V137c0,1.8,0.5,3.2,1.4,4.1c0.9,1,2.2,1.4,3.7,1.4c1.7,0,2.9-0.5,3.9-1.5c1-1,1.4-2.5,1.4-4.6
			v-10.4h3.9V126.3z"/>
		<path class="st0" d="M588.4,127.3c1.3,0.9,2.2,2,2.7,3.4v-11.3h4.1v26.3h-4.1v-4.6c-0.5,1.4-1.4,2.7-2.7,3.4
			c-1.3,0.9-2.8,1.3-4.6,1.3c-1.7,0-3.2-0.4-4.6-1.3c-1.4-0.8-2.4-1.9-3.2-3.4c-0.8-1.5-1.1-3.3-1.1-5.3c0-2,0.4-3.8,1.1-5.3
			c0.8-1.5,1.8-2.7,3.2-3.4c1.4-0.8,2.9-1.3,4.6-1.3C585.7,126.1,587.3,126.4,588.4,127.3z M580.8,131.3c-1,1.1-1.7,2.8-1.7,4.7
			c0,2,0.5,3.6,1.7,4.7c1,1.1,2.5,1.8,4.3,1.8c1.1,0,2.2-0.3,3-0.8c0.9-0.5,1.7-1.3,2.2-2.3c0.5-1,0.8-2.2,0.8-3.4s-0.3-2.4-0.8-3.4
			c-0.5-1-1.3-1.8-2.2-2.3c-0.9-0.5-1.9-0.8-3-0.8C583.3,129.6,581.9,130.1,580.8,131.3z"/>
		<path class="st0" d="M602,118.8c0.5-0.5,1.1-0.6,1.9-0.6s1.4,0.3,1.9,0.6c0.5,0.5,0.8,1,0.8,1.7s-0.3,1.3-0.8,1.7
			c-0.5,0.4-1.1,0.6-1.9,0.6s-1.4-0.3-1.9-0.6c-0.5-0.4-0.8-1-0.8-1.7S601.5,119.3,602,118.8z M605.9,126.3v19.5h-4.1v-19.5H605.9z"
			/>
		<path class="st0" d="M626.6,127.2c1.5,0.8,2.7,1.9,3.6,3.4c0.9,1.5,1.3,3.3,1.3,5.3c0,2-0.4,3.8-1.3,5.3c-0.9,1.5-2,2.7-3.6,3.4
			c-1.5,0.8-3.2,1.3-5.1,1.3c-1.9,0-3.6-0.4-5.1-1.3c-1.5-0.8-2.7-2-3.6-3.6c-0.9-1.5-1.3-3.3-1.3-5.3c0-2,0.4-3.8,1.3-5.3
			c0.9-1.5,2-2.7,3.6-3.4c1.5-0.8,3.2-1.3,5.1-1.3C623.4,126.1,625.1,126.4,626.6,127.2z M618.6,130.3c-0.9,0.5-1.5,1.1-2.2,2.2
			c-0.6,1-0.8,2.2-0.8,3.6s0.3,2.7,0.8,3.7c0.5,1,1.3,1.7,2.2,2.2s1.8,0.8,2.9,0.8c1,0,2-0.3,2.9-0.8c0.9-0.5,1.5-1.1,2.2-2.2
			c0.5-1,0.8-2.2,0.8-3.7c0-1.4-0.3-2.7-0.8-3.6c-0.5-0.9-1.3-1.7-2.2-2.2c-0.9-0.5-1.8-0.8-2.9-0.8
			C620.5,129.5,619.5,129.7,618.6,130.3z"/>
	</g>
</g>
</svg>
