<svg xmlns="http://www.w3.org/2000/svg" viewBox="0 0 18 18">
  <path fill="currentColor" d="M4.75176 2.64693C5.80655 1.66932 7.26998 1 8.89898 1H9.1017C10.7307 1 12.1941 1.66932 13.2489 2.64693C14.2963 3.61765 14.9929 4.94408 14.9929 6.30327V10.5402C14.9929 10.9388 14.6698 11.2619 14.2712 11.2619C13.8726 11.2619 13.5495 10.9388 13.5495 10.5402V6.30327C13.5495 5.43248 13.0905 4.46813 12.2678 3.70556C11.4524 2.94988 10.3311 2.4434 9.1017 2.4434H8.89898C7.66957 2.4434 6.54826 2.94988 5.73293 3.70556C4.91015 4.46813 4.45121 5.43248 4.45121 6.30327V9.98068H6.7501C7.14868 9.98068 7.4718 10.3038 7.4718 10.7024C7.4718 11.101 7.14868 11.4241 6.7501 11.4241H3.72951C3.33093 11.4241 3.00781 11.101 3.00781 10.7024V6.30327C3.00781 4.94408 3.7044 3.61765 4.75176 2.64693Z M12.289 6.87568C12.555 7.15813 12.5416 7.60268 12.2592 7.86863L9.48184 10.4838C9.19939 10.7497 8.75484 10.7364 8.48889 10.4539C8.22294 10.1715 8.23631 9.72691 8.51875 9.46096L11.2961 6.84582C11.5785 6.57987 12.0231 6.59324 12.289 6.87568Z M8.85885 13.9996C8.41828 13.9996 8.06113 14.3568 8.06113 14.7973C8.06113 15.2379 8.41828 15.595 8.85885 15.595C9.29942 15.595 9.65657 15.2379 9.65657 14.7973C9.65657 14.3568 9.29942 13.9996 8.85885 13.9996ZM6.65625 14.7973C6.65625 13.5809 7.64239 12.5947 8.85885 12.5947C10.0753 12.5947 11.0614 13.5809 11.0614 14.7973C11.0614 16.0138 10.0753 16.9999 8.85885 16.9999C7.64239 16.9999 6.65625 16.0138 6.65625 14.7973Z M8.85869 3.59375C9.24664 3.59375 9.56113 3.90824 9.56113 4.29619V13.2971C9.56113 13.6851 9.24664 13.9996 8.85869 13.9996C8.47074 13.9996 8.15625 13.6851 8.15625 13.2971V4.29619C8.15625 3.90824 8.47074 3.59375 8.85869 3.59375Z"/>
</svg>
