<?xml version="1.0" encoding="utf-8"?>
<!-- Generator: Adobe Illustrator 25.2.1, SVG Export Plug-In . SVG Version: 6.00 Build 0)  -->
<svg version="1.1" id="Layer_1" xmlns="http://www.w3.org/2000/svg" xmlns:xlink="http://www.w3.org/1999/xlink" x="0px" y="0px"
	 viewBox="0 0 167.2 96.8" style="enable-background:new 0 0 167.2 96.8;" xml:space="preserve">
<style type="text/css">
	.st0{fill:#5BBC2E;}
	.st1{opacity:0.5;}
	.st2{fill:#76DE49;}
	.st3{opacity:0.75;}
	.st4{fill:#6BCC3E;}
	.st5{fill:#37A806;}
	.st6{fill:#152849;}
</style>
<g id="cockroachdb">
	<path class="st0" d="M133.2,33.9l-27.3-15.8c-4.5-2.5-11-3.5-17-2.6l-37.2,5.8c-3,0.5-5.7,1.4-7.9,2.6s-3.7,2.8-4.5,4.5L36.8,34
		v0.1l-2.9,6.1L29.4,50c-1.6,3.5,0.1,7.2,4.6,9.8l27.3,15.8c4.4,2.5,10.9,3.6,16.9,2.7l37.2-5.8c3-0.5,5.7-1.4,7.9-2.6
		c2.1-1.2,3.7-2.8,4.5-4.5l10-21.6C139.4,40.2,137.6,36.5,133.2,33.9z"/>
	<g class="st1">
		<path class="st0" d="M22.8,13.3c3.3-1.9,7.4-3.3,12-4l56.9-8.8c9.2-1.4,19,0.1,25.9,4l41.7,24.2c6.8,3.9,9.5,9.6,7,15l-15.2,32.9
			c-1.2,2.7-3.6,5-6.8,6.9c-3.3,1.9-7.4,3.3-12,4l-56.9,8.8c-9.3,1.4-19.1-0.2-25.8-4.1L7.9,68c-6.8-3.9-9.5-9.6-7-15l6.8-14.9
			l4.4-9.3l3.9-8.7C17.1,17.5,19.5,15.2,22.8,13.3z"/>
	</g>
	<path class="st2" d="M133.2,26.5l-27.3-15.8c-4.5-2.5-11-3.5-17-2.6l-37.3,5.7c-3,0.5-5.7,1.4-7.9,2.6s-3.7,2.8-4.5,4.5l-2.5,5.6
		v0.1l-2.9,6.1l-4.5,9.8c-0.5,1.2-0.7,2.4-0.5,3.6c0.4,2.3,2.1,4.5,5.1,6.2l27.3,15.8c4.4,2.5,10.9,3.6,16.9,2.7l37.2-5.8
		c3-0.5,5.7-1.4,7.9-2.6c2.1-1.2,3.7-2.8,4.5-4.5l10-21.6C139.4,32.8,137.6,29.1,133.2,26.5z"/>
	<g class="st3">
		<path class="st4" d="M33.9,15.9c2.7-1.5,6-2.7,9.8-3.3l46.4-7.2c7.5-1.1,15.5,0.1,21.2,3.3l34,19.7c5.6,3.2,7.7,7.8,5.7,12.2
			l-12.4,26.9c-1,2.2-2.9,4.1-5.6,5.6s-6,2.7-9.8,3.3l-46.4,7.2c-7.6,1.2-15.6-0.1-21.1-3.3l-34-19.7c-5.6-3.2-7.7-7.8-5.7-12.2
			l5.6-12.2l3.6-7.6l3.2-7.1C29.3,19.3,31.2,17.4,33.9,15.9z"/>
	</g>
	<path class="st2" d="M133.2,26.5l-27.3-15.8c-4.5-2.5-11-3.5-17-2.6l-37.3,5.7c-3,0.5-5.7,1.4-7.9,2.6c-2.1,1.2-3.7,2.8-4.5,4.5
		l-2.5,5.6v0.1l-7.4,15.9c-1.6,3.5,0.1,7.2,4.6,9.8l27.3,15.8c4.4,2.5,10.9,3.6,16.9,2.7l37.2-5.8c3-0.5,5.7-1.4,7.9-2.6
		c2.1-1.2,3.7-2.8,4.5-4.5l10-21.6C139.4,32.8,137.6,29.1,133.2,26.5z M100.4,36.8L100.4,36.8L100.4,36.8z"/>
	<g>
		<g>
			<path class="st5" d="M88.4,34.2c14.8,5,17.4,12.3,16.8,15.3C91.6,45.3,88.4,37.6,88.4,34.2z"/>
		</g>
		<g>
			<path class="st2" d="M74.5,42.3c5.3-0.3,17.9,1.1,26.4,9.7C95.2,52.1,81.8,50.2,74.5,42.3z"/>
		</g>
		<g>
			<path class="st6" d="M88.7,16.9c0.4,0.1,0.8,0.3,0.9,0.5c0.4,0.6,0.7,1.3,1,1.9c0.1,0.3,0,0.7-0.4,0.9L90,20.3l-0.2,0.1
				c-1,0.3-2,0.6-3,0.9c-1.7,0.6-3.4,1.4-4.9,2.3c-3.1,1.8-5.4,4-6.8,6.4c3.1,0,6.2,0.2,9.3,0.6c0.8,0.1,1.5,0.2,2.2,0.4
				c0.5,0.1,0.9,0.2,1.4,0.3c0.7,0.2,1.4,0.3,2.1,0.5c3.7,1,7,2.3,9.9,4c6.6,3.8,10.1,8.9,9.9,14.4c0,0.4,0,0.8-0.1,1.2
				c0,0.3-0.1,0.7-0.2,1c-0.1,0.4-0.2,0.7-0.3,1.2c0,0.2-0.2,0.4-0.4,0.5c-0.2,0.1-0.5,0.2-0.8,0.3c-0.8,0.1-1.5,0.2-2.1,0.2
				c-0.6,0.1-1.2,0.1-1.7,0.1c-0.8,0.1-1.4,0.1-2.1,0.1c-9.4,0.1-18.3-1.9-24.9-5.8c-2.9-1.7-5.2-3.6-6.9-5.7
				c-0.3-0.4-0.6-0.8-0.9-1.2c-0.2-0.3-0.4-0.6-0.5-0.8c-0.3-0.5-0.5-0.9-0.6-1.2c-0.8-1.8-1.1-3.6-1-5.4c-4.1,0.8-7.9,2.1-11,3.9
				c-1.5,0.9-2.8,1.8-3.9,2.8c-0.6,0.5-1.1,1.1-1.6,1.7l-0.2,0.2l-0.2,0.1c-0.4,0.2-1,0.3-1.6,0.2c-1.1-0.2-2.2-0.4-3.3-0.6
				c-0.4-0.1-0.8-0.3-0.9-0.5c-0.2-0.2-0.2-0.5,0.1-0.7c0.5-0.7,1.1-1.3,1.6-1.8c1.5-1.5,3.3-2.8,5.3-4c4.6-2.7,10.3-4.5,16.5-5.3
				c1.5-3.6,4.6-6.9,9.2-9.5c2.1-1.2,4.4-2.3,6.9-3.1c1-0.3,2-0.6,3.2-1C87.8,16.8,88.2,16.8,88.7,16.9z M88.4,34.2
				c-0.1,3.3,3.2,11.1,16.8,15.3C105.8,46.5,103.2,39.2,88.4,34.2 M100.9,52c-8.5-8.6-21.2-10.1-26.4-9.7
				C81.8,50.2,95.2,52.1,100.9,52 M82.2,33.3c-3.2-0.4-6.5-0.5-9.8-0.3c-0.4,1.9-0.2,3.8,0.5,5.7c1.9-0.7,3.6-1.5,5.2-2.4
				S81.1,34.4,82.2,33.3"/>
		</g>
	</g>
</g>
</svg>
