<?xml version="1.0" encoding="utf-8"?>
<!-- Generator: Adobe Illustrator 25.2.1, SVG Export Plug-In . SVG Version: 6.00 Build 0)  -->
<svg version="1.1" id="Layer_1" xmlns="http://www.w3.org/2000/svg" xmlns:xlink="http://www.w3.org/1999/xlink" x="0px" y="0px"
	 viewBox="0 0 167.2 96.7" style="enable-background:new 0 0 167.2 96.7;" xml:space="preserve">
<style type="text/css">
	.st0{fill:#B26952;}
	.st1{opacity:0.5;}
	.st2{fill:#D38F7A;}
	.st3{opacity:0.75;}
	.st4{fill:#C0765A;}
	.st5{fill:#1F305F;}
</style>
<g id="mariadb">
	<path class="st0" d="M133.3,33.9L106,18.1c-4.5-2.5-11-3.5-17-2.6l-37.2,5.8c-3,0.5-5.7,1.4-7.9,2.6s-3.7,2.8-4.5,4.5L36.9,34v0.1
		L34,40.2L29.5,50c-1.6,3.5,0.1,7.2,4.6,9.8l27.2,15.7c4.4,2.5,10.9,3.6,16.9,2.7l37.2-5.8c3-0.5,5.7-1.4,7.9-2.6
		c2.1-1.2,3.7-2.8,4.5-4.5l10-21.6C139.5,40.2,137.7,36.5,133.3,33.9z"/>
	<g class="st1">
		<path class="st0" d="M22.8,13.3c3.3-1.9,7.4-3.3,12-4l56.9-8.8c9.2-1.4,19,0.1,25.9,4l41.7,24.1c6.8,3.9,9.5,9.6,7,15l-15.2,32.9
			c-1.2,2.7-3.6,5-6.8,6.9c-3.3,1.9-7.4,3.3-12,4l-56.9,8.8c-9.3,1.4-19.1-0.2-25.8-4.1L7.9,67.9c-6.8-3.9-9.5-9.6-7-15L7.7,38
			l4.4-9.3L16,20C17.2,17.5,19.6,15.2,22.8,13.3z"/>
	</g>
	<path class="st2" d="M133.3,26.5L106,10.7c-4.5-2.5-11-3.5-17-2.6l-37.3,5.7c-3,0.5-5.7,1.4-7.9,2.6s-3.7,2.8-4.5,4.5l-2.5,5.6v0.1
		l-2.9,6.1l-4.5,9.8c-0.5,1.2-0.7,2.4-0.5,3.6c0.4,2.3,2.1,4.5,5.1,6.2l27.3,15.8c4.4,2.5,10.9,3.6,16.9,2.7l37.2-5.8
		c3-0.5,5.7-1.4,7.9-2.6c2.1-1.2,3.7-2.8,4.5-4.5l10-21.6C139.5,32.8,137.7,29.1,133.3,26.5z"/>
	<g class="st3">
		<path class="st4" d="M34,15.9c2.7-1.5,6-2.7,9.8-3.3l46.4-7.2c7.5-1.1,15.5,0.1,21.2,3.3l34,19.7c5.6,3.2,7.7,7.8,5.7,12.2
			l-12.4,26.9c-1,2.2-2.9,4.1-5.6,5.6s-6,2.7-9.8,3.3l-46.4,7.2c-7.6,1.2-15.6-0.1-21.1-3.3l-34-19.7c-5.6-3.2-7.7-7.8-5.7-12.2
			l5.6-12.2l3.6-7.6l3.2-7.1C29.4,19.3,31.3,17.4,34,15.9z"/>
	</g>
	<path class="st2" d="M133.3,26.5L106,10.7c-4.5-2.5-11-3.5-17-2.6l-37.3,5.7c-3,0.5-5.7,1.4-7.9,2.6c-2.1,1.2-3.7,2.8-4.5,4.5
		l-2.5,5.6v0.1l-7.4,15.9c-1.6,3.5,0.1,7.2,4.6,9.8l27.3,15.8c4.4,2.5,10.9,3.6,16.9,2.7l37.2-5.8c3-0.5,5.7-1.4,7.9-2.6
		c2.1-1.2,3.7-2.8,4.5-4.5l10-21.6C139.5,32.8,137.7,29.1,133.3,26.5z M100.5,36.8L100.5,36.8L100.5,36.8z"/>
	<g id="g3862">
		<g>
			<path class="st4" d="M88.3,15.3c0.9,0.3,1.5,0.3,3-0.4c1.5,1.1,1.3,2.3,0.9,3.6c-0.3,1.1-0.8,2.3-0.4,3.5c0.5,1.2,2.9,4.1,6,7.4
				c2.7,2.8,3.9,5,3.5,7.9c-1.1-0.3-0.9-1-2-1.2c0.7,0.9,1.5,2.3,2,3.2c1.6,2.9,1.4,6.1-2.1,8.9c-0.7-2.7-1.7-5.6-6.2-8.5
				c-0.7,0.6,1.6,2.1,1.1,3.4c-0.1,0.1-0.3,0.2-0.5,0.3c-0.9,0.5-2.1,1-3.3,1.6c-1.9,0.9-3.8,1.8-5.5,2.8c-2.1,1.2-4,2.6-5.4,4.2
				c-1.7,1.9-2,5-3.2,6.7c-1.1,1.7-1.9,2.3-3.8,3.5c-0.4,0.3-1,0.5-1.6,0.9c-0.9-0.1,1-2-0.3-2.6c-0.3,0.1-0.6,0.3-0.8,0.4
				c-0.1,0.1-0.3,0.2-0.4,0.2c-0.1,0.1-0.2,0.1-0.3,0.2c-0.5,0.3-1,0.5-1.8,0.7c-0.1-0.2-0.1-0.4,0-0.6c0.6-1.9,7.1-4.4,7.1-6.1
				c0-1-0.3-1.9-0.6-2.8c-0.3-0.9-0.5-1.7-0.3-2.7c0.1-0.4,0.1-1,0.2-1.3c0.5-1.6,1.5-3.1,2.8-4.6c1.7-2.1,4.1-3.8,5.8-6
				c1.1-1.4,2.1-2.7,2.5-4.3c0.1-0.4,0.2-1,0.2-1.3c0.1-5.8-6.4-9.8-0.2-14.2c0.7-0.5,1.5-0.9,2.1-1.3C87.4,16.3,88,15.9,88.3,15.3z
				 M89.6,19.3c0.1,0,0-0.1,0-0.2c-0.9-1-1-2.6-1-3.1c0-0.1-0.1-0.2-0.2-0.2c0,0-0.1,0.1-0.1,0.2c0,0.7,0.2,2.2,1.1,3.2
				C89.5,19.3,89.6,19.3,89.6,19.3 M90.4,18.9c0,0,0-0.1-0.1-0.2c-1.1-0.9-1.1-2.2-1.3-2.7c0-0.1-0.1-0.2-0.2-0.1c0,0-0.1,0.1,0,0.2
				c0.2,0.7,0.3,1.9,1.3,2.8C90.3,18.9,90.4,18.9,90.4,18.9 M86.6,20.6c0.9-0.5,1.2-1.5-0.3-2c-0.2,0.1-0.3,0.2-0.5,0.2
				c-1.2,0.7-1.5,1.4-0.7,2.2C85.8,21,86.3,20.8,86.6,20.6 M91.3,18.3c-1.3-0.9-1.5-1.8-1.7-2.3c-0.1-0.1-0.2-0.2-0.2-0.1
				c0,0-0.1,0.1,0,0.2c0.3,0.7,0.5,1.5,1.8,2.4c0.1,0.1,0.2,0.1,0.3,0.1C91.4,18.5,91.4,18.4,91.3,18.3 M90,16
				c-0.1-0.1-0.2-0.2-0.2-0.1c0,0,0,0.1,0,0.2c0.4,0.7,0.6,1.2,2,2c0.2,0.1,0.3,0.1,0.3,0.1c0.1,0,0-0.1-0.1-0.2
				C90.5,17.1,90.3,16.4,90,16"/>
		</g>
		<g>
			<path class="st5" d="M85.9,18.8c0.1-0.1,0.3-0.2,0.5-0.2c1.4,0.5,1.2,1.5,0.3,2c-0.4,0.2-0.9,0.4-1.4,0.4
				C84.5,20.3,84.7,19.6,85.9,18.8z"/>
		</g>
		<g>
			<path class="st5" d="M89.8,15.8c0.1,0,0.2,0,0.2,0.1c0.3,0.5,0.5,1.2,1.9,2c0.1,0.1,0.2,0.2,0.1,0.2c0,0-0.1,0-0.3-0.1
				c-1.3-0.8-1.6-1.3-2-2C89.7,15.9,89.8,15.9,89.8,15.8z"/>
		</g>
		<g>
			<path class="st5" d="M88.4,15.8c0.1,0,0.2,0,0.2,0.2c0,0.5,0.1,2.1,1,3.1c0.1,0.1,0.1,0.2,0,0.2c0,0-0.1,0-0.2-0.1
				c-0.9-1-1.1-2.5-1.1-3.2C88.3,15.8,88.3,15.8,88.4,15.8z"/>
		</g>
		<g>
			<path class="st5" d="M88.9,15.8c0.1,0,0.2,0,0.2,0.1c0.1,0.5,0.1,1.8,1.3,2.7c0.1,0.1,0.1,0.2,0.1,0.2s-0.1,0-0.3-0.1
				c-1.1-0.9-1.2-2.1-1.3-2.8C88.8,15.9,88.8,15.8,88.9,15.8z"/>
		</g>
		<g>
			<path class="st5" d="M89.4,15.9c0.1,0,0.2,0,0.2,0.1c0.2,0.5,0.4,1.4,1.7,2.3c0.1,0.1,0.2,0.2,0.1,0.2c0,0-0.1,0-0.3-0.1
				c-1.2-0.9-1.5-1.7-1.8-2.4C89.3,15.9,89.3,15.9,89.4,15.9z"/>
		</g>
		<g>
			<path class="st5" d="M88.5,14c0.8-0.4,1.6-0.4,2.4,0c2.5,1.4,2.2,2.6,2.1,3.9s-1.1,2.6,0.1,4.3c1,1.3,3.8,3.4,5.3,4.9
				c1.7,1.7,3.6,3.5,4.6,5c1.2,1.5,5.9,3.7,8.7,3.1c0.4,0.8-0.4,1.7-1.7,2.4c-1.8,1-4.6,1.8-6.7,1.5c0.3,2.1,0.7,3.3,0.1,5.3
				c-0.5,1.5-1.4,2.7-3,4.2c-0.2,0.2-0.4,0.3-0.6,0.5c-0.7,0.4-1.3,0.4-1.3,0.1c-0.5-1.6-0.7-2.9-1.6-4.6c-4.4,2.2-9.2,3.8-12.7,5.8
				c-0.7,0.4-1.3,0.8-1.8,1.2c-2.7,2-2.8,4.1-4,5.7c-1,2.3-3.4,4.1-5.3,5.1c-1.3,0.8-2.3,1.2-2.4,1.2c-1.3-0.3,0-2-0.3-2.5
				c-0.4,0.3-0.7,0.5-1,0.7c-0.8,0.5-1.5,0.6-2.5,0.7c-1.3-2.7,7.5-5.4,6.9-7.8c-0.1-2-1.1-3.1-0.8-4.9c0.3-2.3,1.3-3.8,3.1-6.2
				c2.5-2.8,6-5.4,7.8-9c2.9-5.4-4.6-10.6-1.6-14.8c1.1-1.6,3.6-2.7,4.9-4C88.4,14.6,87.7,14.5,88.5,14z M92.2,18.5
				c0.4-1.3,0.6-2.5-0.9-3.6c-1.5,0.7-2.1,0.7-3,0.4c-0.3,0.6-0.8,1-1.5,1.5c-0.6,0.4-1.3,0.7-2.1,1.3c-6.2,4.4,0.2,8.5,0.2,14.2
				c0,0.4-0.1,1-0.2,1.3c-0.4,1.6-1.4,2.9-2.5,4.3c-1.7,2.3-4.1,4-5.8,6c-1.3,1.5-2.3,3-2.8,4.6c-0.1,0.4-0.2,1-0.2,1.3
				c-0.2,1,0.1,1.8,0.3,2.7c0.3,0.9,0.6,1.8,0.6,2.8c0,1.7-6.5,4.2-7.1,6.1c-0.1,0.2-0.1,0.4,0,0.6c0.8-0.2,1.3-0.4,1.8-0.7
				c0.1-0.1,0.2-0.1,0.3-0.2c0.1-0.1,0.2-0.1,0.4-0.2c0.2-0.1,0.5-0.3,0.8-0.4c1.3,0.6-0.7,2.5,0.3,2.6c0.6-0.3,1.1-0.6,1.6-0.9
				c2-1.1,2.7-1.8,3.8-3.5c1.2-1.7,1.5-4.8,3.2-6.7c1.4-1.6,3.3-2.9,5.4-4.2c1.7-1,3.6-1.9,5.5-2.8c1.2-0.5,2.4-1.1,3.3-1.6
				c0.2-0.1,0.4-0.2,0.5-0.3c0.6-1.4-1.8-2.8-1.1-3.4c4.4,2.9,5.4,5.8,6.2,8.5c3.5-2.9,3.7-6.1,2.1-8.9c-0.5-0.9-1.2-2.3-2-3.2
				c1.1,0.2,0.8,0.9,2,1.2c0.5-2.9-0.8-5.1-3.5-7.9c-3.1-3.3-5.5-6.2-6-7.4C91.4,20.8,91.9,19.6,92.2,18.5"/>
		</g>
	</g>
</g>
</svg>
