<?xml version="1.0" encoding="utf-8"?>
<!-- Generator: Adobe Illustrator 25.2.1, SVG Export Plug-In . SVG Version: 6.00 Build 0)  -->
<svg version="1.1" id="Layer_1" xmlns="http://www.w3.org/2000/svg" xmlns:xlink="http://www.w3.org/1999/xlink" x="0px" y="0px"
	 viewBox="0 0 167.2 96.8" style="enable-background:new 0 0 167.2 96.8;" xml:space="preserve">
<style type="text/css">
	.st0{opacity:0.5;}
	.st1{fill:#217DA5;}
	.st2{opacity:0.75;}
	.st3{fill:#298BC1;}
	.st4{fill:#CEAE28;}
	.st5{fill:#3498DB;}
	.st6{fill:#FFFFFF;}
</style>
<g id="mysql_1_">
	<g class="st0">
		<path class="st1" d="M22.8,13.3c3.3-1.9,7.4-3.3,12-4l56.9-8.8c9.2-1.4,19,0.1,25.9,4l41.7,24.2c6.8,3.9,9.5,9.6,7,15l-15.2,32.9
			c-1.2,2.7-3.6,5-6.8,6.9s-7.4,3.3-12,4l-56.9,8.8c-9.3,1.4-19.1-0.2-25.8-4.1L7.9,68c-6.8-3.9-9.5-9.6-7-15l6.8-14.9l4.4-9.3
			l3.9-8.7C17.2,17.6,19.6,15.2,22.8,13.3z"/>
	</g>
	<path class="st1" d="M133.2,34l-27.3-15.8c-4.5-2.5-11-3.5-17-2.6l-37.2,5.8c-3,0.5-5.7,1.4-7.9,2.6s-3.7,2.8-4.5,4.5l-2.5,5.6v0.1
		l-2.9,6.1l-4.5,9.8c-1.6,3.5,0.1,7.2,4.6,9.8l27.3,15.8c4.4,2.5,10.9,3.6,16.9,2.7l37.2-5.8c3-0.5,5.7-1.4,7.9-2.6
		c2.1-1.2,3.7-2.8,4.5-4.5l10-21.6C139.4,40.3,137.7,36.6,133.2,34z"/>
	<g class="st2">
		<path class="st3" d="M33.9,15.9c2.7-1.5,6-2.7,9.8-3.3l46.4-7.2c7.5-1.1,15.5,0.1,21.2,3.3l34,19.7c5.6,3.2,7.7,7.8,5.7,12.2
			l-12.4,26.9c-1,2.2-2.9,4.1-5.6,5.6s-6,2.7-9.8,3.3l-46.4,7.2c-7.6,1.2-15.6-0.1-21.1-3.3l-34-19.7c-5.6-3.2-7.7-7.8-5.7-12.2
			l5.6-12.2l3.6-7.6l3.2-7.1C29.3,19.4,31.3,17.5,33.9,15.9z"/>
	</g>
	<path class="st4" d="M133.2,26.6l-27.3-15.8c-4.5-2.5-11-3.5-17-2.6L51.7,14c-3,0.5-5.7,1.4-7.9,2.6s-3.7,2.8-4.5,4.5l-2.5,5.6v0.1
		l-2.9,6.1l-4.5,9.8c-0.5,1.2-0.7,2.4-0.5,3.6c0.4,2.3,2.1,4.5,5.1,6.2l27.3,15.8c4.4,2.5,10.9,3.6,16.9,2.7l37.2-5.8
		c3-0.5,5.7-1.4,7.9-2.6c2.1-1.2,3.7-2.8,4.5-4.5l10-21.6C139.4,32.9,137.7,29.1,133.2,26.6z"/>
	<path class="st5" d="M133.2,26.6l-27.3-15.8c-4.5-2.5-11-3.5-17-2.6L51.7,14c-3,0.5-5.7,1.4-7.9,2.6c-2.1,1.2-3.7,2.8-4.5,4.5
		l-2.5,5.6v0.1l-7.4,15.9c-1.6,3.5,0.1,7.2,4.6,9.8l27.3,15.8c4.4,2.5,10.9,3.6,16.9,2.7l37.2-5.8c3-0.5,5.7-1.4,7.9-2.6
		c2.1-1.2,3.7-2.8,4.5-4.5l10-21.6C139.4,32.9,137.7,29.1,133.2,26.6z M100.5,36.9L100.5,36.9L100.5,36.9z"/>
	<g>
		<path class="st6" d="M59.6,35.1L59.5,35h-0.1c-0.2,0-0.3,0-0.4-0.1s-0.3-0.1-0.5-0.1c-0.4-0.1-0.8,0-1.1,0c-0.2,0-0.3,0-0.5,0
			h-0.2l-0.1,0.1c-0.5,0.3-0.8,0.5-1.1,0.8l-0.2,0.2l0.2,0.1l0.3,0.1l0.1-0.1c0.4,0.1,0.8,0.1,1.2,0.1c0.3,0,0.5,0,0.8,0
			c0.4,0.1,0.7,0.1,1.1,0.2c0.4,0.1,0.7,0.2,1.1,0.2l0.5,0.1v-0.3v-0.1C60.6,36.2,60.5,35.7,59.6,35.1z M58.1,35.9
			c-0.3,0-0.6,0-0.9-0.1C57.5,35.9,57.8,35.9,58.1,35.9c0.2,0,0.4,0.1,0.6,0.1C58.5,36,58.3,36,58.1,35.9z M59.5,35.9
			c0.1,0.1,0.2,0.3,0.2,0.4C59.7,36.2,59.7,36,59.5,35.9z"/>
		<path class="st6" d="M126.9,36.1c-0.2,0-0.4-0.1-0.7-0.1c-0.2-0.1-0.5-0.1-0.9-0.2c-0.2,0-0.4,0-0.6,0c-0.4,0-0.8,0-1.1,0
			c-2.1-0.2-4.2-0.2-6.3,0c-0.4,0-0.9,0.1-1.4,0.2c-1.3,0.2-3.1,0.5-4.1,0.3c0.5-0.4,1-0.9,1.2-1.2c0.3-0.4,0.8-0.7,1.2-1
			c0.4-0.3,0.9-0.6,1.3-1c0.2-0.2,0.4-0.4,0.5-0.5c0.2-0.2,0.3-0.4,0.5-0.5l0.2-0.2l-0.8-0.4c-0.5,0-0.9,0-1.5-0.1
			c-0.6,0-1.2-0.1-1.9-0.1c-3.3,0.1-6.2,0.4-8.7,0.7c-0.9,0.1-1.9,0.3-2.8,0.5c-0.7,0.2-1.3,0.3-1.9,0.4c-0.2,0-0.3,0.1-0.5,0.1
			c-0.3,0.1-0.8,0.2-1,0.2c-0.8,0-1.7-0.3-2.6-0.4c-0.3-0.1-0.5-0.1-0.8-0.2c-2.3-0.4-4.9-1-7.7-1.6c-0.6-0.1-1.1-0.3-1.7-0.4
			c-1.1-0.3-2.2-0.5-3.4-0.7c-8.1-1.1-14.5-1.1-23.2,0.2c-1.6,0.2-3,0.8-4.6,1.3l-0.7,0.3l-2.3,1.2C50.2,33,49.7,33,49.2,33
			c-0.3,0-0.6,0-0.9,0.1c-1.5,0.2-5,0.7-7.1,1.8c-1.4,0.8-1.7,1.6-1,2.6c1,1.5,4.2,1.7,6.1,1.8c0.4,0,0.7,0,1,0.1h0.6
			c1.1,0.1,2.2,0.2,3.1,0.4c0.3,0.1,0.7,0.2,1,0.3s0.7,0.2,1.1,0.3c0.4,0.1,0.8,0.2,1.3,0.4c1.4,0.4,2.9,0.8,4.4,1.1
			c1.1,0.2,2.1,0.4,3,0.5c0.2,0,0.4,0,0.6,0c0.3,0,0.6,0,0.8,0.1c0.2,0.4,0.6,0.7,1,1.1c0.2,0.2,0.4,0.4,0.6,0.6
			c2.3,2.6,7,4.9,11.3,5.5c2.2,0.3,3.8,0.2,4.8-0.4c0.3-0.2,0.5-0.3,0.6-0.5c0.7-0.9-0.3-1.6-1.3-2.4c-0.4-0.3-0.8-0.6-1.1-0.9
			c0.1,0,0.2,0,0.4,0.1c0.8,0.2,1.5,0.3,2.4,0.5c2.1,0.3,5.1,0.3,8.1,0.1c0.5,0,1,0,1.5,0c0.9,0,1.8,0,2.6-0.2l0.6-0.1l-0.4-0.2
			l-0.4-0.2l-0.1,0.1c-0.3,0-0.6,0-0.8,0c-0.1,0-0.2,0-0.3,0c-1.1,0-2.4-0.1-3.3-0.1c-2.9-0.3-5.8-0.7-8.8-1.2
			c-1.1-0.2-2.2-0.5-3.2-0.7l-0.9-0.2c-0.2,0-0.3-0.1-0.5-0.1c-0.4-0.1-0.8-0.3-1.4-0.2l-0.4,0.1l0.1,0.2c0.1,0.2,0.1,0.4,0.1,0.6
			c0.1,0.5,0.2,0.9,0.5,1.4c0.6,0.9,1.8,1.7,3,2.6c0.2,0.1,0.4,0.3,0.5,0.4c-0.9,0.2-1.8,0-2.8-0.3L75.3,48c-3-0.7-6.5-2.6-8.1-4.4
			c-0.1-0.1-0.2-0.3-0.4-0.4c-0.8-1-1.5-1.8-2.3-2C64,41,63.3,41,62.8,41.1c-0.3,0-0.6,0-0.8,0c-0.9-0.1-2-0.3-3-0.5
			c-1.1-0.3-2.2-0.6-3.3-0.9c-1.2-0.4-2.5-0.8-3.8-1c-0.8-0.2-1.8-0.3-2.8-0.4c-0.4,0-0.7-0.1-1.1-0.1c-0.5,0-0.9-0.1-1.4-0.1
			c-0.8,0-1.6-0.1-2.5-0.3c-0.6-0.1-1-0.3-1.1-0.5c-0.1-0.1-0.1-0.1,0.1-0.3c0-0.1,0.1-0.1,0.2-0.2c0.3-0.2,1.1-0.4,1.7-0.6
			c1.7-0.4,3-0.7,4.4-0.8c0.2,0,0.5,0,0.7,0c0.6,0,1.3,0,1.9-0.2l0.7-0.4c0.5-0.2,1-0.5,1.5-0.7c0.6-0.3,1.1-0.6,1.7-0.8
			c1.9-0.6,4-1,6.3-1.3c6.4-0.8,13.1-0.6,19.4,0.6c0.6,0.1,1.1,0.2,1.7,0.4c0.4,0.1,0.8,0.2,1.2,0.3c1.1,0.2,2.2,0.5,3.3,0.7
			c1.1,0.2,2.2,0.5,3.2,0.7c0.3,0.1,0.7,0.2,1,0.2c1.7,0.4,3.5,0.8,5.2,0.9c0.9,0.1,2.3-0.3,3.5-0.7c0.4-0.1,0.8-0.3,1.1-0.3
			c0.4-0.1,0.8-0.2,1.2-0.3c0.6-0.2,1.2-0.3,1.6-0.4c1.8-0.2,3.5-0.4,5-0.5c0.2,0,0.5-0.1,0.9-0.1c0.5-0.1,1.4-0.2,2-0.2
			c-2.3,1.4-3.7,2.5-4.5,3.6c-0.1,0.1-0.1,0.1-0.2,0.2c-0.3,0.3-0.8,0.8,0.2,1.3c0.2,0,0.4,0.1,0.7,0.1c0.2,0.1,0.4,0.1,0.7,0.2
			c0.5,0.1,2.2,0.3,3.6,0.1l0.7-0.1c0.9-0.1,1.7-0.1,2.6-0.2c1-0.1,1.9-0.3,2.8-0.5s1.8-0.4,2.8-0.5c0.6-0.1,1.3-0.1,2-0.2
			c0.5,0,1-0.1,1.4-0.1c0.2,0,0.4,0,0.5,0c0.4,0,0.9,0,1.4-0.1l0.5-0.2L126.9,36.1z"/>
	</g>
</g>
</svg>
