<?xml version="1.0" encoding="utf-8"?>
<!-- Generator: Adobe Illustrator 25.2.1, SVG Export Plug-In . SVG Version: 6.00 Build 0)  -->
<svg version="1.1" id="Layer_1" xmlns="http://www.w3.org/2000/svg" xmlns:xlink="http://www.w3.org/1999/xlink" x="0px" y="0px"
	 viewBox="0 0 167.2 96.7" style="enable-background:new 0 0 167.2 96.7;" xml:space="preserve">
<style type="text/css">
	.st0{fill:#515151;}
	.st1{fill:#757575;}
	.st2{opacity:0.5;}
	.st3{opacity:0.75;}
	.st4{fill:#606060;}
	.st5{fill:#FEFEFE;}
</style>
<g id="postgres">
	<path class="st0" d="M133.3,33.9L106,18.1c-4.5-2.5-11-3.5-17-2.6l-37.2,5.8c-3,0.5-5.7,1.4-7.9,2.6s-3.7,2.8-4.5,4.5L36.9,34v0.1
		L34,40.2L29.5,50c-1.6,3.5,0.1,7.2,4.6,9.8l27.2,15.7c4.4,2.5,10.9,3.6,16.9,2.7l37.2-5.8c3-0.5,5.7-1.4,7.9-2.6
		c2.1-1.2,3.7-2.8,4.5-4.5l10-21.6C139.5,40.2,137.7,36.5,133.3,33.9z"/>
	<path class="st1" d="M133.3,26.5L106,10.7c-4.5-2.5-11-3.5-17-2.6l-37.3,5.7c-3,0.5-5.7,1.4-7.9,2.6s-3.7,2.8-4.5,4.5l-2.5,5.6v0.1
		l-2.9,6.1l-4.5,9.8c-0.5,1.2-0.7,2.4-0.5,3.6c0.4,2.3,2.1,4.5,5.1,6.2l27.3,15.8c4.4,2.5,10.9,3.6,16.9,2.7l37.2-5.8
		c3-0.5,5.7-1.4,7.9-2.6c2.1-1.2,3.7-2.8,4.5-4.5l10-21.6C139.5,32.8,137.7,29.1,133.3,26.5z"/>
	<g class="st2">
		<path class="st0" d="M22.8,13.3c3.3-1.9,7.4-3.3,12-4l56.9-8.8c9.2-1.4,19,0.1,25.9,4l41.7,24.1c6.8,3.9,9.5,9.6,7,15l-15.2,32.9
			c-1.2,2.7-3.6,5-6.8,6.9c-3.3,1.9-7.4,3.3-12,4l-56.9,8.8c-9.3,1.4-19.1-0.2-25.8-4.1L7.9,67.9c-6.8-3.9-9.5-9.6-7-15L7.7,38
			l4.4-9.3L16,20C17.2,17.5,19.6,15.2,22.8,13.3z"/>
	</g>
	<g class="st3">
		<path class="st4" d="M34,15.9c2.7-1.5,6-2.7,9.8-3.3l46.4-7.2c7.5-1.1,15.5,0.1,21.2,3.3l34,19.7c5.6,3.2,7.7,7.8,5.7,12.2
			l-12.4,26.9c-1,2.2-2.9,4.1-5.6,5.6s-6,2.7-9.8,3.3l-46.4,7.2c-7.6,1.2-15.6-0.1-21.1-3.3l-34-19.7c-5.6-3.2-7.7-7.8-5.7-12.2
			l5.6-12.2l3.6-7.6l3.2-7.1C29.4,19.3,31.3,17.4,34,15.9z"/>
	</g>
	<path class="st1" d="M133.3,26.5L106,10.7c-4.5-2.5-11-3.5-17-2.6l-37.3,5.7c-3,0.5-5.7,1.4-7.9,2.6c-2.1,1.2-3.7,2.8-4.5,4.5
		l-2.5,5.6v0.1l-7.4,15.9c-1.6,3.5,0.1,7.2,4.6,9.8l27.3,15.8c4.4,2.5,10.9,3.6,16.9,2.7l37.2-5.8c3-0.5,5.7-1.4,7.9-2.6
		c2.1-1.2,3.7-2.8,4.5-4.5l10-21.6C139.5,32.8,137.7,29.1,133.3,26.5z M100.5,36.8L100.5,36.8L100.5,36.8z"/>
	<g>
		<g>
			<path class="st5" d="M114,31.7c0.9-0.5,2.2-0.3,2.6,0.5c0.3,0.5,0.2,0.9,0.1,1.4c-0.3,1.4-1.2,2.7-2.7,3.9
				c-0.6,0.5-1.3,0.9-2,1.4c-0.3,0.2-0.6,0.3-0.9,0.5c-0.4,0.2-0.8,0.3-1.3,0.5c0.4,0.3,0.9,0.6,1.3,0.9c1.2,0.9,2.5,1.9,3.8,2.8
				c1,0.8,2.1,1.6,3,2.4c0.9,0.7,1.6,1.6,1.9,2.5c0.3,1-0.1,2-0.9,3c-0.7,0.9-1.6,1.7-2.7,2.4c-1.9,1-4.1,1.4-6.7,1.1
				c-1.9-0.3-3.4-0.8-4.9-1.5c-3-1.4-5.8-3-8.5-4.6c0,0-0.1-0.1-0.2-0.1c0,0.2-0.1,0.4-0.1,0.5c-0.3,1.1-1,2-2.2,2.8
				c-0.2,0.2-0.5,0.3-0.7,0.4c-1.1,0.6-2.3,1.1-3.7,1.5c-0.6,0.1-1.2,0.2-1.9,0.2c-1.1-0.1-1.8-0.6-1.6-1.2c0.1-0.6,0.7-1,1.2-1.5
				c0.5-0.4,0.9-0.9,1.3-1.3c0.3-0.3,0.3-0.6,0.3-0.9c0-0.3-0.1-0.7-0.2-1v-0.1c-1.1,0.6-2.3,1-3.7,1.2c0.1,0.4,0,0.9,0.1,1.4
				c0.1,1.3,0.3,2.5,0.4,3.8c0,0.4,0,0.7-0.1,1.1c-0.1,0.6-0.5,1-1.2,1.4c-0.6,0.4-1.4,0.6-2.4,0.7c-1.3,0.2-2.6,0.1-3.9-0.1
				c-2.7-0.3-5.3-0.9-7.8-1.5c-4.4-1.2-8.6-2.6-12.8-4.1c-1.8-0.7-3.5-1.4-5.2-2.1c-1.5-0.6-2.8-1.4-4-2.2s-2.2-1.7-3-2.6
				c-1.9-2.4-1.4-4.8,1-7c0.8-0.8,1.8-1.4,2.8-2c0.7-0.4,1.4-0.8,2.1-1.1c2.3-1.1,4.9-2,7.7-2.8c0.2-0.1,0.2-0.1,0.2-0.2
				c0.5-1.5,1.7-2.7,3.4-3.9c0.3-0.2,0.6-0.4,0.9-0.6c1.3-0.7,2.6-1.4,4.1-1.9c0.1-0.1,0.2-0.1,0.3-0.2c1-1.1,2.2-2.1,3.6-3.1
				c0.5-0.4,1.1-0.8,1.7-1.1c0.6-0.4,1.2-0.7,1.9-1c4.4-2.1,9.3-3,14.9-2.6c1.2,0.1,2.1,0.4,3.1,0.8c1.7,0.7,3.1,1.6,4.3,2.6
				c4,3.1,6.8,6.7,8.9,10.4c0.7,1.2,1.2,2.5,1.8,3.8c0,0.1,0,0.1,0.1,0.3c0.7-0.1,1.3-0.3,1.8-0.6c0.3-0.1,0.6-0.3,0.8-0.4
				c1-0.6,1.8-1.2,2.6-1.9c0.3-0.2,0.5-0.4,0.8-0.6C113.7,31.8,113.8,31.7,114,31.7z M105.7,39c-0.8-0.7-1.1-1.4-0.5-2.2
				c0.1-0.1,0.2-0.3,0.3-0.4c-0.3,0-0.5-0.1-0.8-0.1c-1.3-0.1-2.6-0.2-3.8-0.5c-0.8-0.2-1.6-0.3-2.4-0.5c-2.6-0.4-5.1-0.9-7.5-1.5
				c-1.9-0.5-3.8-1.1-5.2-2.1c-1.2-0.8-1.6-1.8-1-2.9c0.5-0.8,1.3-1.4,2.2-1.9c0.3-0.2,0.6-0.3,1-0.5c0.1-0.1,0.3-0.2,0.5-0.2
				c-0.1,0-0.2-0.1-0.4-0.1c-2.8-0.7-5.8-1.1-8.9-1.2c-5.8-0.1-10.7,1-14.6,3.2c-0.7,0.4-1.4,0.9-2.1,1.4c-1.7,1.3-2.4,2.9-2.2,4.5
				c0.2,1.3,0.9,2.6,2,3.8c0.8,0.8,1.6,1.7,2.7,2.4c0.3,0.2,0.6,0.5,0.9,0.6c0.2-0.4,0.5-0.7,0.7-1.1c0.6-0.9,1.4-1.6,2.5-2.3
				c0.3-0.2,0.6-0.3,0.9-0.5c1.7-0.7,3.4-0.9,5.3-0.4c1,0.3,1.9,0.6,2.8,1c1.8,0.7,3.4,1.5,4.8,2.5c1,0.7,1.9,1.4,2.5,2.2
				c0.7,0.9,1.4,1.9,2.1,2.8c0.2,0.2,0.6,0.6,0.9,0.9c0.2-0.1,0.3-0.2,0.4-0.3c0,0,0.1,0,0.1-0.1c2-0.9,4.4-0.4,5.6,0.3
				c0.4,0.2,0.7,0.4,1,0.6c3.3,2,6.7,3.9,10.4,5.7c1,0.5,2.2,0.8,3.4,1.1c2,0.3,3.8,0.1,5.2-0.8c1.2-0.7,2.1-1.6,2.7-2.5
				s0.4-1.7-0.2-2.6c-0.5-0.7-1.2-1.2-2-1.8c-0.7-0.6-1.5-1.2-2.2-1.7c-0.7-0.6-1.5-1.1-2.2-1.6s-1.4-1-2-1.5
				c-0.6-0.4-1.2-0.8-1.8-1.3C106.5,39.5,106,39.2,105.7,39 M82.2,50.5c0-0.4-0.1-0.8-0.1-1.2h-0.3c-3.6,0-6.6-0.7-8.9-2.3
				c-1.2-0.8-2.2-1.6-3.4-2.3c-1.1-0.6-2.2-1.2-3.3-1.8c-1.6-0.9-3-1.9-4.2-3c-1.2-1-2.1-2-2.8-3.1c-0.7-1.1-1.1-2.3-1.2-3.5
				c-3.1,0.9-5.9,2-8.4,3.4c-1.1,0.6-2.1,1.4-2.9,2.2c-1.5,1.7-1.8,3.4-0.5,5.1c0.8,1.1,2,2.1,3.4,3c1.3,0.8,2.8,1.6,4.4,2.2
				c1.9,0.8,3.9,1.5,5.9,2.2c3.2,1.1,6.4,2.2,9.8,3.1c2.3,0.6,4.5,1.2,7,1.5c1.1,0.2,2.3,0.3,3.5,0.2c0.6-0.1,1.2-0.2,1.5-0.4
				c0.4-0.2,0.6-0.5,0.7-0.9c0-0.2,0-0.4,0-0.6C82.5,53.1,82.4,51.8,82.2,50.5 M71.9,23.4c-0.5,0.3-0.9,0.7-1.4,1
				c0.4-0.1,0.8-0.2,1.1-0.2c5.9-1.1,11.7-0.7,17.3,0.7c0.6,0.2,1.3,0.3,1.8,0.6c1.1,0.5,1.9,1.1,2.7,1.8c0.6,0.5,1.2,0.9,1.8,1.4
				c1,0.7,2.2,1.3,3.5,1.8c1.2,0.6,2.4,1.1,3.4,1.8c1.1,0.7,1.9,1.6,2.4,2.5c0.1,0.3,0.1,0.3,0.6,0.3V35c-1-2.5-2.4-4.9-4.2-7.2
				c-2-2.6-4.4-5.1-7.8-7.3c-0.8-0.5-1.6-0.9-2.7-1.3c-0.9-0.3-1.9-0.4-2.8-0.4c-5-0.1-9.2,1-12.9,2.9c-0.3,0.1-0.5,0.3-0.8,0.4
				C73.2,22.4,72.5,22.9,71.9,23.4 M83.5,47.9c1.1-0.1,2.2-0.5,3.1-1c-1-1.1-1.9-2.1-2.6-3.3c-0.8-1.2-1.9-2.3-3.5-3.1
				c-1.6-0.9-3.5-1.8-5.4-2.5c-1.2-0.4-2.3-0.5-3.5-0.1c-0.3,0.1-0.6,0.3-0.9,0.4c-0.3,0.2-0.6,0.4-0.9,0.6
				c-1.1,0.9-1.8,1.8-2.1,2.9c0,0.1,0,0.2,0.2,0.3c1.6,0.8,3.1,1.6,4.5,2.5c0.5,0.4,1.1,0.7,1.6,1.1c0.8,0.6,1.5,1.1,2.6,1.5
				C78.8,48,81,48.3,83.5,47.9 M96.3,30.8c-1.6-0.7-2.9-1.6-4.1-2.6c-0.7-0.5-1.3-0.9-1.9-1.4c-0.6,0.3-1.1,0.5-1.6,0.8
				c-0.4,0.2-0.8,0.5-1.1,0.8c-0.4,0.3-0.7,0.7-0.8,1.1c-0.2,0.6,0.3,1.1,1,1.5c0.9,0.6,2.1,1,3.3,1.3c2.2,0.6,4.5,1.1,6.8,1.5
				c1.4,0.3,2.8,0.5,4.3,0.8c0.1,0,0.2,0,0.4,0.1c-0.5-0.8-1.2-1.5-2.3-2C98.9,32,97.6,31.4,96.3,30.8 M93.3,47.2
				c-0.4-0.4-1.7-0.7-2.4-0.5c-0.3,0.1-0.4,0.1-0.6,0.2c-0.2,0.1-0.2,0.2-0.2,0.5c0,0.1,0,0.2,0,0.3c0.1,0.4,0.2,0.8,0.2,1.2
				c0.1,0.6,0,1.1-0.4,1.6c-0.3,0.4-0.7,0.8-1.2,1.2c-0.3,0.4-0.7,0.7-1,1c0.2,0,0.3,0,0.4,0c1.2-0.3,2.2-0.7,3-1.2
				c0.4-0.2,0.7-0.5,1.1-0.7c1.3-1,1.7-2.1,1.3-3.4C93.4,47.3,93.4,47.2,93.3,47.2 M114.2,34.3c0.2-0.4,0.3-0.8,0.5-1.2h-0.1
				c-0.9,0.7-1.8,1.5-2.9,2.2c-0.3,0.2-0.6,0.3-0.9,0.5c-0.7,0.4-1.5,0.7-2.4,0.8c-0.3,0-0.5,0.1-0.6,0.2c-0.1,0.1-0.2,0.2-0.3,0.3
				l-0.1,0.1c-0.3,0.3-0.2,0.6,0,0.8s0.6,0.4,0.8,0.6c0.2,0.1,0.3,0.1,0.5,0.1c0.5-0.2,1-0.4,1.3-0.6c0.7-0.4,1.5-0.9,2.2-1.4
				C113.1,35.9,113.8,35.2,114.2,34.3"/>
		</g>
		<g>
			<path class="st5" d="M71.7,38.6c0.4-0.1,0.8-0.3,1.2-0.4c0.2-0.1,0.4-0.1,0.6-0.1c0.6,0,0.9,0.1,0.9,0.4c0.1,0.4-0.2,0.7-0.6,1
				c-0.2,0.1-0.5,0.2-0.8,0.3c-0.5,0.1-1,0.1-1.5,0s-0.7-0.4-0.5-0.6C71.3,39,71.6,38.8,71.7,38.6z"/>
		</g>
		<g>
			<path class="st5" d="M88.2,28.7c0.3-0.2,0.5-0.3,0.9-0.4c0.4-0.2,0.8-0.1,0.9,0.2c0.4,0.5,0.2,0.9-0.3,1.2
				c-0.4,0.3-1,0.4-1.5,0.3c-0.5,0-0.8-0.2-0.7-0.5C87.6,29.2,87.9,28.9,88.2,28.7z"/>
		</g>
	</g>
</g>
</svg>
