<?xml version="1.0" encoding="utf-8"?>
<!-- Generator: Adobe Illustrator 25.2.1, SVG Export Plug-In . SVG Version: 6.00 Build 0)  -->
<svg version="1.1" id="Layer_1" xmlns="http://www.w3.org/2000/svg" xmlns:xlink="http://www.w3.org/1999/xlink" x="0px" y="0px"
	 viewBox="0 0 167.2 96.8" style="enable-background:new 0 0 167.2 96.8;" xml:space="preserve">
<style type="text/css">
	.st0{fill:#F28C30;}
	.st1{opacity:0.5;}
	.st2{fill:#F9A755;}
	.st3{opacity:0.75;}
	.st4{fill:#ED903B;}
	.st5{fill:#5294CF;}
	.st6{enable-background:new    ;}
	.st7{fill:#2D72B8;}
	.st8{fill:#205B98;}
</style>
<g id="redshift">
	<path class="st0" d="M133.2,34l-27.3-15.8c-4.5-2.5-11-3.5-17-2.6l-37.2,5.8c-3,0.5-5.7,1.4-7.9,2.6s-3.7,2.8-4.5,4.5l-2.5,5.6v0.1
		l-2.9,6.1l-4.5,9.8c-1.6,3.5,0.1,7.2,4.6,9.8l27.3,15.8c4.4,2.5,10.9,3.6,16.9,2.7l37.2-5.8c3-0.5,5.7-1.4,7.9-2.6
		c2.1-1.2,3.7-2.8,4.5-4.5l10-21.6C139.4,40.3,137.7,36.6,133.2,34z"/>
	<g class="st1">
		<path class="st0" d="M22.8,13.3c3.3-1.9,7.4-3.3,12-4l56.9-8.8c9.2-1.4,19,0.1,25.9,4l41.7,24.2c6.8,3.9,9.5,9.6,7,15l-15.2,32.9
			c-1.2,2.7-3.6,5-6.8,6.9c-3.3,1.9-7.4,3.3-12,4l-56.9,8.8c-9.3,1.4-19.1-0.2-25.8-4.1L7.9,68c-6.8-3.9-9.5-9.6-7-15l6.8-14.9
			l4.4-9.3l3.9-8.7C17.2,17.6,19.6,15.2,22.8,13.3z"/>
	</g>
	<path class="st2" d="M133.2,26.6l-27.3-15.8c-4.5-2.5-11-3.5-17-2.6L51.7,14c-3,0.5-5.7,1.4-7.9,2.6s-3.7,2.8-4.5,4.5l-2.5,5.6v0.1
		l-2.9,6.1l-4.5,9.8c-0.5,1.2-0.7,2.4-0.5,3.6c0.4,2.3,2.1,4.5,5.1,6.2l27.3,15.8c4.4,2.5,10.9,3.6,16.9,2.7l37.2-5.8
		c3-0.5,5.7-1.4,7.9-2.6c2.1-1.2,3.7-2.8,4.5-4.5l10-21.6C139.4,32.9,137.7,29.1,133.2,26.6z"/>
	<g class="st3">
		<path class="st4" d="M33.9,15.9c2.7-1.5,6-2.7,9.8-3.3l46.4-7.2c7.5-1.1,15.5,0.1,21.2,3.3l34,19.7c5.6,3.2,7.7,7.8,5.7,12.2
			l-12.4,26.9c-1,2.2-2.9,4.1-5.6,5.6s-6,2.7-9.8,3.3l-46.4,7.2c-7.6,1.2-15.6-0.1-21.1-3.3l-34-19.7c-5.6-3.2-7.7-7.8-5.7-12.2
			l5.6-12.2l3.6-7.6l3.2-7.1C29.3,19.4,31.3,17.5,33.9,15.9z"/>
	</g>
	<path class="st2" d="M133.2,26.6l-27.3-15.8c-4.5-2.5-11-3.5-17-2.6L51.7,14c-3,0.5-5.7,1.4-7.9,2.6c-2.1,1.2-3.7,2.8-4.5,4.5
		l-2.5,5.6v0.1l-7.4,15.9c-1.6,3.5,0.1,7.2,4.6,9.8l27.3,15.8c4.4,2.5,10.9,3.6,16.9,2.7l37.2-5.8c3-0.5,5.7-1.4,7.9-2.6
		c2.1-1.2,3.7-2.8,4.5-4.5l10-21.6C139.4,32.9,137.7,29.1,133.2,26.6z M100.5,36.9L100.5,36.9L100.5,36.9z"/>
	<g id="Layer_1_1_">
		<g>
			<polygon class="st5" points="83.5,17.3 89,16.3 121.2,34.9 119.3,38.1 			"/>
		</g>
		<g class="st6">
			<g>
				<polygon class="st5" points="62.3,21.4 73.1,19.3 78.3,22.3 110.7,41.1 116,44.2 112.4,50.4 				"/>
			</g>
			<g>
				<polygon class="st7" points="62.3,21.4 112.4,50.4 102.6,56.1 52.5,27 				"/>
			</g>
			<g>
				<polygon class="st8" points="52.5,27 102.6,56.1 91.8,58.2 86.5,55.1 54.1,36.3 48.9,33.3 				"/>
			</g>
			<g>
				<polygon class="st5" points="45.5,39.3 54.1,36.3 86.5,55.1 81.3,60.1 				"/>
			</g>
			<g>
				<polygon class="st8" points="45.5,39.3 81.3,60.1 75.8,61.2 43.7,42.5 				"/>
			</g>
		</g>
		<g>
			<polygon class="st8" points="83.5,17.3 119.3,38.1 110.7,41.1 78.3,22.3 			"/>
		</g>
	</g>
</g>
</svg>
