<?xml version="1.0" encoding="utf-8"?>
<!-- Generator: Adobe Illustrator 25.2.1, SVG Export Plug-In . SVG Version: 6.00 Build 0)  -->
<svg version="1.1" id="Layer_1" xmlns="http://www.w3.org/2000/svg" xmlns:xlink="http://www.w3.org/1999/xlink" x="0px" y="0px"
	 viewBox="0 0 167.2 96.8" style="enable-background:new 0 0 167.2 96.8;" xml:space="preserve">
<style type="text/css">
	.st0{opacity:0.5;}
	.st1{fill:#8DCCDB;}
	.st2{opacity:0.75;}
	.st3{fill:#9CD6E5;}
	.st4{fill:#B3E3F4;}
	.st5{fill:#3498DB;}
	.st6{fill:url(#SVGID_1_);}
	.st7{fill:#003B57;}
</style>
<g>
	<g class="st0">
		<path class="st1" d="M22.8,13.3c3.3-1.9,7.4-3.3,12-4l56.9-8.8c9.2-1.4,19,0.1,25.9,4l41.7,24.2c6.8,3.9,9.5,9.6,7,15l-15.2,32.9
			c-1.2,2.7-3.6,5-6.8,6.9s-7.4,3.3-12,4l-56.9,8.8c-9.3,1.4-19.1-0.2-25.8-4.1L7.9,68c-6.8-3.9-9.5-9.6-7-15l6.8-14.9l4.4-9.3
			l3.9-8.7C17.2,17.6,19.6,15.2,22.8,13.3z"/>
	</g>
	<path class="st1" d="M133.2,34l-27.3-15.8c-4.5-2.5-11-3.5-17-2.6l-37.2,5.8c-3,0.5-5.7,1.4-7.9,2.6s-3.7,2.8-4.5,4.5l-2.5,5.6v0.1
		l-2.9,6.1l-4.5,9.8c-1.6,3.5,0.1,7.2,4.6,9.8l27.3,15.8c4.4,2.5,10.9,3.6,16.9,2.7l37.2-5.8c3-0.5,5.7-1.4,7.9-2.6
		c2.1-1.2,3.7-2.8,4.5-4.5l10-21.6C139.4,40.3,137.7,36.6,133.2,34z"/>
	<g class="st2">
		<g>
			<path class="st3" d="M33.9,15.9c2.7-1.5,6-2.7,9.8-3.3l46.4-7.2c7.5-1.1,15.5,0.1,21.2,3.3l34,19.7c5.6,3.2,7.7,7.8,5.7,12.2
				l-12.4,26.9c-1,2.2-2.9,4.1-5.6,5.6s-6,2.7-9.8,3.3l-46.4,7.2c-7.6,1.2-15.6-0.1-21.1-3.3l-34-19.7c-5.6-3.2-7.7-7.8-5.7-12.2
				l5.6-12.2l3.6-7.6l3.2-7.1C29.3,19.4,31.3,17.5,33.9,15.9z"/>
		</g>
	</g>
	<path class="st4" d="M133.2,26.6l-27.3-15.8c-4.5-2.5-11-3.5-17-2.6L51.7,14c-3,0.5-5.7,1.4-7.9,2.6s-3.7,2.8-4.5,4.5l-2.5,5.6v0.1
		l-2.9,6.1l-4.5,9.8c-0.5,1.2-0.7,2.4-0.5,3.6c0.4,2.3,2.1,4.5,5.1,6.2l27.3,15.8c4.4,2.5,10.9,3.6,16.9,2.7l37.2-5.8
		c3-0.5,5.7-1.4,7.9-2.6c2.1-1.2,3.7-2.8,4.5-4.5l10-21.6C139.4,32.9,137.7,29.1,133.2,26.6z"/>
	<path class="st4" d="M133.2,26.6l-27.3-15.8c-4.5-2.5-11-3.5-17-2.6L51.7,14c-3,0.5-5.7,1.4-7.9,2.6c-2.1,1.2-3.7,2.8-4.5,4.5
		l-2.5,5.6v0.1l-7.4,15.9c-1.6,3.5,0.1,7.2,4.6,9.8l27.3,15.8c4.4,2.5,10.9,3.6,16.9,2.7l37.2-5.8c3-0.5,5.7-1.4,7.9-2.6
		c2.1-1.2,3.7-2.8,4.5-4.5l10-21.6C139.4,32.9,137.7,29.1,133.2,26.6z M100.5,36.9L100.5,36.9L100.5,36.9z"/>
	<g>
		<g id="sqlite">
			<g>
				<path class="st5" d="M104.6,46.2c-0.3-0.1-0.5-0.2-0.5-0.2c-0.1,0-25.9-26.4-25.9-26.4c0-0.4,0-0.9,0-1.3L46,36.8
					c-2.2,1.2-2.2,3.2,0,4.5l35.6,20.6c2.1,1.2,5.7,1.2,7.8,0l21.2-12.3C108.6,48.6,106.5,47.4,104.6,46.2z"/>
				
					<linearGradient id="SVGID_1_" gradientUnits="userSpaceOnUse" x1="65.1801" y1="75.1862" x2="83.1738" y2="44.0202" gradientTransform="matrix(1 0 0 -1 0 102.0697)">
					<stop  offset="2.054068e-07" style="stop-color:#95D9F2"/>
					<stop  offset="0.75" style="stop-color:#3498DB"/>
				</linearGradient>
				<path class="st6" d="M98,43.8L98,43.8c1-0.8,1.9-1.3,2.5-1.6l-3.4-2.8l-19-20l-31,18l-0.5,0.4l-0.4,0.4L46,38.6L45.9,39l0.1,0.5
					l0.2,0.4l0.4,0.4l0.5,0.4l33,19.1c0,0,11.5-11.3,17.7-15.9h0.1l0,0C97.9,43.8,97.9,43.8,98,43.8L98,43.8z"/>
				<g>
					<path class="st7" d="M80.7,14.2c1-0.6,2.2-0.9,3.9-0.9c10.2-0.3,15.9,9.1,18.7,16.4c-2.4,2.7-4,6.4-4,6.6c0,0,0.2-0.3,0.9-1.4
						c0.6-0.7,2.5-2.6,3.7-3.7c1.4,3.8,1.9,6.6,1.9,6.8c-0.1,0.2-2.7,3.8,0.2,7.1c-3.8-3.2-7.3-6.8-10.6-10.9
						c-2.8-3.7-9.6-14.3-9.2-19C85.3,20.1,88,27.6,94,35.4c4.3,5,9.3,9.3,14.2,12.4c3.2,2,6.4,3.5,9.4,4.4l-0.2,0.3
						c-1.6-0.4-4.1-1.4-6.8-2.7c-2-1-4.1-2.2-6-3.4c-0.3-0.2-0.5-0.2-0.5-0.2c-0.2-0.1-3.1-1.3-6-2.3c-0.1,0-0.2-0.1-0.2-0.1
						c-1.3-0.5-2.5-0.8-3.4-1c-0.5-0.1-1.5-0.9-2.7-2.1c0.7,0.1,3.9,0.6,4.8,0.9c1,0.3,1.2,0.4,1.2,0.4c-0.1,0-3.9-1.5-6.8-2
						c-0.5-0.6-1.1-1.2-1.7-1.9c1,0.2,3.2,0.5,4.2,0.8c0.1,0,0.2,0,0.3,0C94,39,94.1,39,94.2,39c0.6,0.2,0.9,0.2,0.9,0.3
						c0,0-0.4-0.2-1-0.4c-0.2-0.1-0.5-0.2-0.9-0.3c-1.3-0.5-3-1-4.5-1.3c-5.5-4.7-10.2-12.2-10.5-17.6c0-0.5-0.1-1,0-1.4
						C78.4,16.6,79.1,15.1,80.7,14.2z"/>
				</g>
			</g>
		</g>
	</g>
</g>
</svg>
