<?xml version="1.0" encoding="utf-8"?>
<!-- Generator: Adobe Illustrator 25.2.1, SVG Export Plug-In . SVG Version: 6.00 Build 0)  -->
<svg version="1.1" id="Layer_1" xmlns="http://www.w3.org/2000/svg" xmlns:xlink="http://www.w3.org/1999/xlink" x="0px" y="0px"
	 viewBox="0 0 167.3 96.8" style="enable-background:new 0 0 167.3 96.8;" xml:space="preserve">
<style type="text/css">
	.st0{opacity:0.5;}
	.st1{fill:#888888;}
	.st2{opacity:0.75;}
	.st3{fill:#999999;}
	.st4{fill:#AAAAAA;}
	.st5{enable-background:new    ;}
	.st6{fill:#E25B54;}
	.st7{fill:#FFFFFF;}
</style>
<g id="sql-server">
	<g class="st0">
		<path class="st1" d="M22.9,13.3c3.3-1.9,7.4-3.3,12-4l56.9-8.8c9.2-1.4,19,0.1,25.9,4l41.7,24.2c6.8,3.9,9.5,9.6,7,15l-15.3,32.9
			c-1.2,2.7-3.6,5-6.8,6.9c-3.3,1.9-7.4,3.3-12,4l-56.9,8.8c-9.3,1.4-19.1-0.2-25.8-4.1L7.9,68c-6.8-3.9-9.5-9.6-7-15l6.8-14.9
			l4.4-9.3l3.9-8.7C17.2,17.6,19.6,15.2,22.9,13.3z"/>
	</g>
	<path class="st1" d="M133.3,33.9L106,18.1c-4.5-2.5-11-3.5-17-2.6l-37.2,5.8c-3,0.5-5.7,1.4-7.9,2.6s-3.7,2.8-4.5,4.5L36.9,34v0.1
		L34,40.2L29.5,50c-1.6,3.5,0.1,7.2,4.6,9.8l27.3,15.8c4.4,2.5,10.9,3.6,16.9,2.7l37.2-5.8c3-0.5,5.7-1.4,7.9-2.6
		c2.1-1.2,3.7-2.8,4.5-4.5l10-21.6C139.5,40.2,137.8,36.5,133.3,33.9z"/>
	<g class="st2">
		<path class="st3" d="M34,15.9c2.7-1.5,6-2.7,9.8-3.3l46.4-7.2c7.5-1.1,15.5,0.1,21.2,3.3l34,19.7c5.6,3.2,7.7,7.8,5.7,12.2
			l-12.4,27c-1,2.2-2.9,4.1-5.6,5.6s-6,2.7-9.8,3.3l-46.4,7.2c-7.6,1.2-15.6-0.1-21.1-3.3l-34-19.7c-5.6-3.2-7.7-7.8-5.7-12.2
			l5.6-12.2l3.6-7.6l3.2-7.1C29.4,19.4,31.4,17.4,34,15.9z"/>
	</g>
	<path class="st4" d="M133.3,26.5L106,10.7c-4.5-2.5-11-3.5-17-2.6l-37.2,5.8c-3,0.5-5.7,1.4-7.9,2.6s-3.7,2.8-4.5,4.5l-2.5,5.6v0.1
		L34,32.8l-4.5,9.8C29,43.8,28.8,45,29,46.2c0.4,2.3,2.1,4.5,5.1,6.2l27.3,15.8c4.4,2.5,10.9,3.6,16.9,2.7l37.2-5.8
		c3-0.5,5.7-1.4,7.9-2.6c2.1-1.2,3.7-2.8,4.5-4.5l10-21.6C139.5,32.8,137.8,29.1,133.3,26.5z"/>
	<path class="st4" d="M133.3,26.5L106,10.7c-4.5-2.5-11-3.5-17-2.6l-37.2,5.8c-3,0.5-5.7,1.4-7.9,2.6c-2.1,1.2-3.7,2.8-4.5,4.5
		l-2.5,5.6v0.1l-7.4,15.8c-1.6,3.5,0.1,7.2,4.6,9.8l27.3,15.8c4.4,2.5,10.9,3.6,16.9,2.7l37.2-5.8c3-0.5,5.7-1.4,7.9-2.6
		c2.1-1.2,3.7-2.8,4.5-4.5l10-21.6C139.5,32.8,137.8,29.1,133.3,26.5z M100.6,36.9C100.5,36.8,100.5,36.8,100.6,36.9
		C100.5,36.8,100.5,36.8,100.6,36.9z"/>
	<g>
		<g class="st5">
			<g>
				<path class="st6" d="M80.5,22.1c11.5-3.6,21.4-1.9,22.1-1.8c-0.1,0.2-3.9,3.3-8.1,7.2c-2,1.9-4.1,3.9-6,5.9
					c-0.3,0.3-0.6,0.6-0.8,0.9c-1,1.1-2,2.2-2.9,3.3c-0.2,0.2-0.3,0.4-0.5,0.6c-0.1,0.2-0.3,0.3-0.4,0.5c-0.2,0.2-0.4,0.5-0.5,0.7
					s-0.2,0.3-0.3,0.5c-0.7,0.9-1.4,1.9-2.2,2.9c-0.1,0.2-0.3,0.4-0.4,0.6c-0.1,0.1-0.2,0.3-0.3,0.4c-0.2,0.3-0.4,0.6-0.7,1
					c-0.4,0.6-0.7,1.1-1.1,1.6c-0.5,0.8-0.9,1.5-1.3,2.2c-0.3,0.5-0.5,1-0.8,1.4c-1,1.8-1.6,3.1-2,3.9c-0.1,0.2-0.2,0.4-0.2,0.5
					c0-0.2,0.1-0.4,0.1-0.7c0.3-1.8,0.7-6.4-0.4-10.3c-0.7-2.7-3.2-4.6-5-6c-5.1-3.8-17.6-2.8-18.9-2.9c-1.3-0.1-1.5-0.6-1.5-0.7
					c0.3,0,1,0.1,2.2-0.2c0.8-0.2,1.9-0.5,3.3-1.1c0.4-0.2,0.9-0.4,1.4-0.6c0.6-0.3,1.3-0.5,2.1-0.9c0.6-0.3,1.3-0.6,2.1-0.9
					c0.4-0.2,0.9-0.4,1.4-0.6c1.4-0.6,3-1.2,4.6-1.9c0.5-0.2,1.1-0.4,1.6-0.7C72,25.1,77,23.1,80.5,22.1z M96.6,24.3
					c2.3-2,4.7-3.5,4.8-3.5c-0.2,0-3.5-0.1-6.1,0c-2.5,0.2-6.1,0.7-6.3,0.7c0.1,0.1,1.1,1.5,1.5,2.9S91,29,91,29.1
					C91.2,28.9,94.2,26.2,96.6,24.3 M85.5,29.4c1.6,0.1,4.1,0.3,4.3,0.3c0-0.2-0.4-3.1-0.8-4.6c-0.3-1.5-0.8-3.2-0.8-3.3
					c-0.1,0.1-2.7,2.9-3.7,4.1s-2.3,3.5-2.4,3.6C82.1,29.5,83.8,29.3,85.5,29.4 M82.6,38.1l6.6-7.6c-0.1,0-1.9-0.1-3.7,0
					c-1.8,0.1-3.8,0.4-3.9,0.5c0,0.1,0.6,2.2,0.7,3.4C82.4,35.5,82.6,38,82.6,38.1 M76.5,24.7c0.1,0.1,1.4,1.1,2.3,2
					c0.9,1,1.8,2.1,1.8,2.1c0.1-0.1,1.5-2.4,2.4-3.3s3.6-3.6,3.8-3.8c-0.2,0-3.4,0.8-5.3,1.4C79.6,23.7,76.7,24.6,76.5,24.7
					 M79.7,41.9c0.3-0.7,1.4-2.2,1.4-2.2c-0.1,0-1.4-0.5-2-0.6s-1.6-0.2-1.7-0.2c0,0.1,0.4,1.7,0.3,2.8c0,1.1-0.6,4-0.6,4.1
					C77.3,45.7,79.3,42.6,79.7,41.9 M78.3,27.8c-0.6-1-2.4-2.6-2.5-2.6L73.3,31c0.1,0,1.7-0.3,3-0.5s2.8-0.4,2.9-0.4
					C79.2,30,79,28.8,78.3,27.8 M81.3,38.8c0-0.1-0.1-2.1-0.4-3.5s-1-2.8-1-2.9l-2.6,5.3c0.1,0,1.4,0.3,2.2,0.5
					C80.2,38.4,81.3,38.8,81.3,38.8 M75.2,43.5l0.6,3.2c0-0.1,0.8-2.2,0.9-3.5c0.1-1.2,0-3-0.1-3.1L75.2,43.5 M69.8,27.3
					c-1.8,0.7-3.2,1.4-3.3,1.4c0.1,0,1.5,0.4,2.5,0.9s2.8,1.5,2.9,1.6l2.3-5.5C74.1,25.7,71.6,26.6,69.8,27.3 M68.1,30.1
					c-1.3-0.5-2.7-0.9-2.8-0.9l-0.4,4.4l6.1-1.9C70.9,31.6,69.4,30.7,68.1,30.1 M72.7,33.2l-0.6,4.7c0.1,0,1-0.2,1.9-0.2
					c0.8,0,1.9,0,2,0c0-0.1-0.5-1.6-1.3-2.4C73.8,34.3,72.8,33.2,72.7,33.2 M73.4,32.3c0,0,0.9,0.8,1.6,1.5s1.7,2.1,1.7,2.1l2-4.6
					L73.4,32.3 M58,32l5.4,1.7l0.8-4.3L58,32 M68.5,35.9c1.1,0.6,2.5,1.6,2.5,1.6l0.3-4.6c-0.1,0-1.6,0.4-2.9,0.8
					c-1.3,0.4-2.5,1-2.6,1C65.9,34.7,67.1,35.1,68.5,35.9 M56.6,33.6c1.4,0.1,4.6,0.4,4.8,0.4c-0.1,0-2-0.8-3.3-1.2
					c-1-0.3-1.4-0.3-1.5-0.3l-3.5,1.1C53.2,33.6,55.2,33.5,56.6,33.6 M73.7,40.4c0.4,0.7,0.8,1.8,0.8,1.9l1-3.6c0,0-1-0.1-1.6,0
					s-1.2,0.2-1.3,0.2C72.7,39,73.3,39.7,73.7,40.4"/>
			</g>
			<g>
				<path class="st7" d="M60.6,25.8c1.8,0.5,5.2,1,6.6,1.2c-0.6,0.2-1.1,0.4-1.6,0.7l-4-0.7L61,29.6c-0.5,0.2-0.9,0.4-1.4,0.6
					l1.2-3.2c-0.2,0.1-3.5,1.6-5.1,2.3C54.1,29.9,51,31,50.9,31h6.7c-0.7,0.3-1.4,0.6-2.1,0.9l-5-0.6c0,0-0.3,0.7-0.2,1.3
					c0.1,0.3,0.3,0.7,0.5,0.9c-1.2,0.3-1.8,0.2-2.1,0.2c0-0.3,0.2-2.2,1.5-4.1c1.6-2.4,4-5.1,4.2-5.2C54.5,24.4,58.2,25.3,60.6,25.8
					z M50.9,30.3l9.1-3.8c-0.1,0-2-0.5-2.9-0.8c-1-0.3-2.5-0.9-2.5-1c-0.1,0.1-1.1,1.2-2,2.5C51.6,28.6,51,30.2,50.9,30.3"/>
			</g>
			<g>
				<path class="st3" d="M74.4,53.4C74.4,53.4,74.4,53.5,74.4,53.4c0,0.4-0.1,0.6-0.1,0.8C74.3,53.7,74.4,53.5,74.4,53.4z"/>
			</g>
			<g>
				<path class="st7" d="M88.5,33.4c1.5,0.7,5.3,2.5,10.7,6.4c7.2,5,9.9,11.7,10,12l-0.6,0.4c-3.6,2-21.1,11.1-31.3,7.6
					c-2.9-0.9-3.1-4.1-3-5.6c0-0.1,0.1-0.2,0.2-0.5c0.2,0.4,0.5,1.3,0.7,1.8c0.2,0.8,1.2,2.2,1.3,2.3l5.6-5.7
					c-0.1,0-1.9-0.4-3.6-1.1c-1-0.4-1.7-0.8-2.1-1.1c0.2-0.4,0.5-0.9,0.8-1.4c0.4,0.3,1.2,0.9,2.1,1.4c1.3,0.8,3.2,1,3.3,1
					c0-0.1-0.8-2.2-1.5-3.6c-0.5-1.1-1.2-2.1-1.5-2.6c0.2-0.3,0.4-0.6,0.7-1c0.4,0.6,1.5,1.9,2.1,2.8c0.8,1.3,1.6,3.3,1.7,3.5
					c0.1-0.1,1.7-1.8,2.7-2.9c1-1.1,1.9-2.7,1.9-2.8c-0.2,0-3.2,0-4.7-0.2c-1.1-0.1-2.7-0.5-3.5-0.7c0.1-0.2,0.3-0.4,0.4-0.6
					c0.8,0.2,2.4,0.5,3.7,0.6c1.9,0.1,3.9,0.1,4,0.1c-0.1-0.1-1.2-1.4-2.6-2.5c-1-0.7-2-1.3-2.6-1.6c0.2-0.2,0.3-0.5,0.5-0.7
					c0.7,0.4,2,1.2,3.1,1.9c1.5,1.1,2.8,2.3,2.8,2.4l2.7-5.4l-8.2,0.7c0.1-0.2,0.3-0.4,0.5-0.6l7.6-0.7l-4.7-2.5
					C88,34,88.3,33.7,88.5,33.4z M95.1,51.2l1.5,5.5c0.1-0.1,2.8-2.5,4.2-4c1.4-1.6,4.1-4.6,4.2-4.8c-0.2,0.1-3.9,1.8-5.7,2.3
					C97.4,50.8,95.2,51.2,95.1,51.2 M102.5,44.5c-0.8-0.8-2.2-2.2-2.3-2.3c-0.1,0.1-1.6,2.9-2.4,4.1c-0.7,1.2-2.6,3.9-2.7,4
					c0.1,0,2.4-0.3,4.4-1s5.1-2.2,5.2-2.3C104.7,47,103.4,45.3,102.5,44.5 M84.6,52.4l1.3,6.7l6.3-7c-0.1,0-2.3,0.4-3.9,0.4
					C86.7,52.4,84.7,52.4,84.6,52.4 M91,44.1c0.1,0.1,1.3,1.7,1.8,2.6c0.4,0.9,1.5,2.8,1.6,2.9c0.1-0.1,1.8-2.3,2.4-3.4
					c0.7-1.1,2.7-4,2.8-4.1c-0.1,0-2.3,0.8-4.4,1.3C92.9,43.7,91.1,44,91,44.1 M87.4,48c-0.9,1-2.8,3.1-2.9,3.2c0.1,0,3,0.1,4.5,0
					c1.6-0.1,3.7-0.4,3.8-0.4c0-0.1-0.8-2.4-1.4-3.3c-0.6-0.9-1.5-2.4-1.6-2.4C89.8,45.1,88.3,47,87.4,48 M81.2,59.1
					c1.8,0.1,3.7,0,3.8,0l-1.9-6.4l-5.9,5.5C77.4,58.2,79.4,58.9,81.2,59.1 M107.2,50c-0.4-0.6-1.6-1.9-1.6-2
					c-0.1,0.2-2.5,3.3-3.6,4.5c-1.2,1.2-3.8,3.6-4,3.7c0.2-0.1,3.5-1.3,5.7-2.3s4.6-2.1,4.7-2.2C108.4,51.6,107.6,50.6,107.2,50
					 M91.3,58.2c2-0.5,4-1.1,4.2-1.1l-1.7-4.9L87,58.9C87,58.9,89.3,58.6,91.3,58.2 M96.6,39.4c-0.8-0.6-3-1.8-3.1-1.8
					c0,0.1-0.7,1.8-1.1,2.5s-1.5,3-1.6,3.2c0.1,0,2.4-0.3,3.9-0.6s4.4-1.2,4.6-1.2C99.2,41.4,97.5,40,96.6,39.4"/>
			</g>
		</g>
	</g>
</g>
</svg>
