<?xml version="1.0" encoding="utf-8"?>
<!-- Generator: Adobe Illustrator 24.0.3, SVG Export Plug-In . SVG Version: 6.00 Build 0)  -->
<svg version="1.1" id="Layer_1" xmlns="http://www.w3.org/2000/svg" xmlns:xlink="http://www.w3.org/1999/xlink" x="0px" y="0px"
	 viewBox="0 0 312.4 344" style="enable-background:new 0 0 312.4 344;" xml:space="preserve">
<style type="text/css">
	.st0{fill:#FAD83B;}
</style>
<g>
	<g>
		<path class="st0" d="M285.3,66.2l-102.6-59c-16.7-9.6-37.2-9.6-53.6,0l-26.8,15.5v68.9v15.8v64.7c0,19.1,10.1,36.9,26.8,46.6
			c8.2,4.7,17.6,7.3,26.8,7.3c9.2,0,18.6-2.4,26.8-7.3l0,0c16.7-9.6,26.8-27.3,26.8-46.6c0-19.1-10.1-36.9-26.8-46.6l0,0
			c-8.2-4.7-17.6-7.3-26.8-7.3V84.6c9.2,0,18.6,2.4,26.8,7.3l29.2,16.9c16.7,9.6,26.8,27.3,26.8,46.6V189
			c0,19.1-10.1,36.9-26.8,46.6l-29.2,16.9c-8.2,4.7-17.6,7.3-26.8,7.3c-9.2,0-18.6-2.4-26.8-7.3l-29.2-16.9
			C83.2,226,73.1,208.3,73.1,189v-16.9v-16.9v-43.5V39.5L26.8,66.3C10.1,75.9,0,93.6,0,112.9v118.3c0,19.1,10.1,36.9,26.8,46.6
			l102.6,59c16.7,9.6,37.2,9.6,53.6,0l102.6-59c16.7-9.6,26.8-27.3,26.8-46.6V112.7C312.1,93.5,301.8,75.8,285.3,66.2z M123,129.7
			c-3.1,2.4-5.6,4.9-8,7.8V99.9l8-4.7V129.7z M143.5,119.8c-2.8,0.7-5.4,1.4-8,2.6V88.5c2.6-1.2,5.4-1.9,8-2.6V119.8z"/>
	</g>
</g>
</svg>
