<?xml version="1.0" encoding="utf-8"?>
<!-- Generator: Adobe Illustrator 24.1.0, SVG Export Plug-In . SVG Version: 6.00 Build 0)  -->
<svg version="1.1" id="Layer_1" xmlns="http://www.w3.org/2000/svg" xmlns:xlink="http://www.w3.org/1999/xlink" x="0px" y="0px"
	 viewBox="0 0 132.8 146.2" style="enable-background:new 0 0 132.8 146.2;" xml:space="preserve">
<style type="text/css">
	.st0{fill:#FAD83B;}
</style>
<g>
	<g>
		<path class="st0" d="M121.3,28.2L77.7,3.1C70.6-1,61.9-1,54.9,3.1L43.5,9.7V39v6.7v27.5c0,8.1,4.3,15.7,11.4,19.8
			c3.5,2,7.5,3.1,11.4,3.1s7.9-1,11.4-3.1l0,0c7.1-4.1,11.4-11.6,11.4-19.8c0-8.1-4.3-15.7-11.4-19.8l0,0c-3.5-2-7.5-3.1-11.4-3.1
			V36c3.9,0,7.9,1,11.4,3.1l12.4,7.2c7.1,4.1,11.4,11.6,11.4,19.8v14.3c0,8.1-4.3,15.7-11.4,19.8l-12.4,7.2c-3.5,2-7.5,3.1-11.4,3.1
			s-7.9-1-11.4-3.1l-12.4-7.2c-7.1-4.1-11.4-11.6-11.4-19.8v-7.2V66V47.5V16.8L11.4,28.2C4.3,32.3,0,39.8,0,48v50.3
			c0,8.1,4.3,15.7,11.4,19.8L55,143.2c7.1,4.1,15.8,4.1,22.8,0l43.6-25.1c7.1-4.1,11.4-11.6,11.4-19.8V48
			C132.7,39.8,128.3,32.3,121.3,28.2z M52.3,55.2c-1.3,1-2.4,2.1-3.4,3.3v-16l3.4-2V55.2z M61,51c-1.2,0.3-2.3,0.6-3.4,1.1V37.7
			c1.1-0.5,2.3-0.8,3.4-1.1V51z"/>
	</g>
</g>
</svg>
